<?xml version="1.0" encoding="UTF-8"?>
<svg width="944px" height="813px" version="1.1" xmlns="http://www.w3.org/2000/svg">
 <g fill-rule="evenodd">
  <path d="m58 45.999c0.696 6.305 2.238 6.318 4.999 10h5c0.466 11.583 10.449 39.738 7 44-1.182 11.101-9.064 18.726-21 19-3.128-4.522-6.236-8.119-13-10v6c-8.543 5.224-17.389 7.255-32 7-1.333-1.666-2.666-3.333-4-5 0.334-1.666 0.667-3.333 1-5 5.386-8.678 12.67-6.543 23.001-9v-1c-0.334-1.333-0.667-2.666-1.001-4-1.999-0.333-4-0.666-6-1-0.582-11.871-6.834-15.351-10-23v-28c7.351-1.086 20.793-10.117 29-7 5.671 1.925 10.253 5.958 17.001 7zm119 27c0.334 3.333 0.667 6.667 1.001 10 9.15-1.05 13.378-5.513 19 1-3 4.333-6.001 8.668-9 13 4.848 12.483 12.899 19.281 22 27 21.289 0.19 22.373-8.821 39-10 4.369 5.994 29.38 3.366 38.999 3v-2c0.667-2.333 1.334-4.666 2.001-7 8.2 5.905 16.166 0.894 24-1v10c-5.372 9.345-7.491 25.655-10.001 37 0.334 0.334 0.667 0.667 1.001 1h9c-0.334 2.334-0.667 4.667-1 7-4.08 10.475-15.214 15.225-25.001 21-0.16 22.565-16.799 31.972-22 52-8.003 31.928 6.321 66.219 10.001 88-1 1.334-2.001 2.667-3 4-13.667 0.264-26.515 8.675-41 6-2.491-6.579-1.599-11.662-6-16-25.098 0.631-56.441 5.35-75.001 2-1.621-4.528-2.999-9.526-6.999-12-8-1.333-14.001-4.666-22.001-6-5.052-1.884-8.205-4.536-12-7-4.666-0.333-7.333-3.666-12-4-1.999-1.999-5-2-7-4-11.814-4.708-20.362 2.421-25 4-3.999 0.334-6 2.667-10 3-14.112 9.47-24.237 27.778-39 37h-1c-0.333-4.332-0.666-8.667-1-13-7.237-1.281-12.133-11.655-14.999-17 10.101-10.847 13.841-22.025 26-31v-5h5.999c2.392-5.291 26.261-26.389 32.001-27 5.403-2.55 4.747 1.159 10.999-1 3-2.999 6.001-6 9-9 0.179-5.759-0.388-9.729-2-13-9.537-0.099-9.779-3.019-14.999-7-0.459-17.306 0.53-34.353 7-45-3.334-1.999-6.668-4-10-6 4.252-5.849 2.256-8.221 6-17 3.69-8.654 17.283-12.309 20.999-20 1-5.999 2.001-12 3-18 2.553-5.369 10.142-9.042 14.001-14v-7c19.485-3.172 29.148-19.878 45.999-27 1.334 4.333 2.667 8.668 4 13 4.333 0.334 8.668 0.667 13 1 0.334 2 0.667 4.001 1.001 6h4.999zm1.001 25c-0.211 3.978-0.612 2.728 1 6h3c0.333-0.333 0.666-0.666 0.999-1-0.333-1.666-0.666-3.333-0.999-5h-4zm-162 10c-0.666 0.334-1.333 0.667-2 1v8h4c1.334-1.666 2.667-3.333 4-5-0.333-1.333-0.666-2.666-1-4h-5zm79 79c-8.218-0.073-9.708 1.502-13 6v12c5.203 3.295 6.852 3.657 13 5 0.334 5.333 0.667 10.668 1.001 16 7.646 1.461 15.46-4.342 22-8-0.168-7.608 1.122-10.457 3-15 1.999 1 4 2.001 6 3 8.281-8.62 17.271-16.781 24.999-26-0.333-4.332-0.666-8.667-1-13-6.579-1.024-11.47-4.77-16-8 1.429-14.399 13.224-31.324 2.001-47h-5.001c-1.999 2-4 4.001-6 6-2.666-0.999-5.333-2-7.999-3-1.667 1.667-3.334 3.334-5.001 5 0.616 19.406-11.272 28.903-23.999 34v4c1.999 0.334 4 0.667 5.999 1-0.333 2.667-0.666 5.334-1 8-6.862-0.752-8.342 0.393-12 5v2c5.276 3.379 11.787 5.811 13 13zm201-62c-4.303 5.935-7.56 21.115-5.001 30h1.001c1.333-0.666 2.666-1.333 4-2 1.999-8.999 4-18 6-27-2-0.333-4.001-0.666-6-1z" fill="#a0aac7"/>
  <g stroke="#000">
   <g stroke-width="0px">
    <path d="m898 344c-6.304 0.697-6.317 2.239-10 5-0.333 1.667-0.666 3.334-1 5-9.459-6.367-27.079-8.351-36.999-1-1.208 7.608-5.73 9.379-10 14 0.124 13.868 3.743 18.821 7 27 5.78 12.758-5.364 31.581-4.001 38 0.817 4.157 4.915 7.324 3 15h-0.999c-6.139-1.299-12.838-3.547-20-4-3.334-4.666-6.668-9.333-10-14 0.666-2.999 1.333-6 1.999-9-1.666-1.333-3.333-2.666-5-4-1.999 0.334-4 0.667-6 1-0.333 3-0.666 6.001-0.999 9-3 0.334-6.001 0.667-9.001 1-2.391 14.349-14.33 26.751-5.999 38 5.808 0.635 6.266 1.706 8.999 5 0.347 6.167 0.624 9.609-3 12-9.233 4.854-33.256 0.801-41.999-2-0.87-8.563-5.123-11.548-9.001-17v-1c4.667-0.333 9.334-0.666 14-1-1.861-15.309-5.446-28.415 4.001-39-0.334-4.666-0.667-9.333-1.001-14-4.658-8.309-9.325-7.361-20-10-1.452-10.849-7.608-15.213-10.999-26-2-0.333-4.001-0.666-6.001-1 0.493-18.035-5.725-18.849-12.999-28-0.1-21.315 5.762-28.546 5.999-46-2.716-1.472-31.257-39.744-35-45h-1.999c-7.538-15 6.367-33.819-12-41-7.489-2.861-27.007 10.281-43.001 6 0.405-9.49-0.579-14.098-3.999-19-3-0.333-6.001-0.666-9-1-4.349-22.032-1.811-13.134 5-31 17.28-2.557 14.58-10.623 24-14 6.999-0.333 14-3.666 20.999-4 15.65-23.772 0.601-55.095-7-69 17.448 11.301 11.405 2.551 29.001-3 4.385 3.157 8.313 6.144 14.999 7 0.534 5.543 0.907 5.439 4.001 8 2.79 2.125 2.59 1.842 7 2v-2c2.3-5.033 1.332-7.85 5-11 3.458 2.165 4.657 2.916 10.999 3 0.923 7.595 4.389 8.45 8 13 9.398 1.966 21.801 5.201 28.001 2 0.333-1.666 0.666-3.333 0.999-5 13.902 0.444 26.617 6.111 43 3 1.544-7.129 15.593-14.273 21-19v-11h12.001c6.107-9.348 12.116-7.597 15.999-21 12.426-0.483 14.104 1.828 20 7 4.333-0.333 8.668-0.666 13.001-1 0.333-1.999 0.666-4 0.999-6 8.333 0.334 16.668 0.667 25 1 0.334 12.723 8.292 14.828 14 22-0.075 8.166-3.003 11.303-4 15 1.334 4.667 2.667 9.334 4 14-1.893 6.506-6.8 6.512-7 19 16.604 10.175 2.764 23.64 10 44 2.392 6.73 10.451 12.414 12 20-4.374 0.353-5.859 0.59-7.999 3-9.296 21.883-34.022 72.303-7.001 96 0.609 23.405-5.092 39.232-14.999 52-7.521 0.836-11.31 4.462-16.001 8v5zm-20-283c0.334 1.667 0.667 3.334 1.001 5 3.332-0.333 6.666-0.666 10-1v-2c-0.334-0.666-0.667-1.333-1.001-2h-10zm-47 27c-0.333 1.667-0.666 3.334-0.999 5h2.999c0.667-0.666 1.334-1.333 2.001-2-1.334-0.999-2.667-2-4.001-3zm-120 7v5h5c0.666-0.333 1.333-0.666 1.999-1v-2c-0.333-0.666-0.666-1.333-0.999-2h-6zm208 31v28h1 3v-2-25c-1.333-0.333-2.666-0.666-4-1zm-100 13c-7.089 8.658-13.106 19.522-13 35 9.511 6.151 17.761 23.631 21.001 35 4.406-0.112 4.935 0.901 6.999-2v-5c-2.584-0.089-4.338-1.201-6-3 16.951-1.468 26.243-4.216 30-21-1.999-1.666-4-3.333-5.999-5 0.666-0.666 1.333-1.333 1.999-2 3.891 0.936 4.855 0.53 8.001-1 0.102-6.854-0.473-8.083-4.001-11-7.285-8.152-19.252-11.39-25.999-20h-13.001zm53.001 48c-0.667-2.333-1.334-4.666-2.001-7-1.999 0.667-4 1.334-6 2-0.172 20.411-8.16 35.526 0 53 5.271 10.766 20.491 9.119 25.001 22 10.878-0.833 13.169-17.777 13.999-27-7.482-5.543-5.397-11.206-8-22-1.999-0.333-4-0.666-5.999-1-0.859-8.375-4.57-15.131-9.001-20h-7.999zm35.999 20c-0.999 0.667-2 1.334-3 2v3l1 1c2.334-0.333 4.667-0.666 7-1v-2c-0.333-0.666-0.666-1.333-1-2-1.333-0.333-2.666-0.666-4-1zm-200 55c-0.574 3.487-0.353 2.935 1.001 6h0.999c1.334-0.333 2.667-0.666 4.001-1 0.333-0.999 0.666-2 0.999-3-0.333-0.666-0.666-1.333-0.999-2h-6.001zm13.001 11c-0.334 2-0.667 4.001-1.001 6 1 0.667 2.001 1.334 3.001 2 0.666-0.999 1.333-2 1.999-3v-5h-3.999zm0.999 128h2.001-2.001zm45 25c-3.156 5.317-3.064 22.126-0.999 29h0.999 2c0.334-0.333 0.667-0.666 1.001-1v-26c-1-0.666-2.001-1.333-3.001-2zm124 19c-0.163 12.351-2.041 38.411-10 44-0.666 1-3.333 5.001-3.999 6-5-0.333-8.001-3.666-13.001-4-1.614-4.141-2.257-7.743-6-10-13.692-6.464-21.325-0.34-34 1v-6c4.333-2.666 8.668-5.333 13.001-8 8.58 4.849 15.207 8.274 23.999 11 2.133-2.831 4.774-3.442 7-6 2.337-4.368 1.273-9.835-2-12-4.236-0.669-4.617 1.698-10 3-2.333-2.666-4.666-5.333-7-8v-1c3-0.333 6.001-0.666 9-1-0.33-9.596 1.674-15.168 6-20 9.578 4.761 11.299 11.201 27 11zm-157-1c2.333 2 4.666 4.001 7 6v3c-4.422-1.255-4.199-1.266-6.001-5-0.333-1.333-0.666-2.666-0.999-4z" fill="#a4abc9"/>
    <path d="m724 428v1c1.626 10.821 13.45 12.001 16.999 20 2.152 4.85-0.999 8.746 2.001 12 2.999 0.334 6 0.667 9 1 3.999 5.667 8 11.334 12 17-3 1-6.001 2.001-9 3-0.159 18.587-13.234 8.907-23 16-3.77 2.888-2.223 9.894-8 12-9.333-0.666-18.668-1.333-28-2-2.211-6.266-5.21-6.819-11.001-10-21.19 0.334-31.517 20.353-51.999 16 1.18-23.741 5.867-25.086-8-43h-1.001c-10.899 1.334-22.001 2.667-33 4-0.999 3.333-2 6.667-3 10 13.898 10.575 22.238 25.393 40.001 32-8e-3 7.342-1.255 8.118-4.001 12-13.579 1.841-12.348 13.517-26 12-4.495-3.758-7.622-5.747-10-12-9.332 0.334-18.667 0.667-28 1-0.578 4.101 0.451 2.991-2 5-5.544 2.771-22.637 2.111-28 0v-25c9.889-5.142 15.853-14.199 28-19-0.219-12.733-6.54-15.808-10-24-4.174-9.882 0.61-12.06-1-20h-14v4c2 0.667 4.001 1.334 6 2v1h-14l-11-11h-6v-17c19.935 0.112 24.678 4.617 43 1 2.773-21.639 20.71-37.263 31.001-53-4.571-3.714-5.581-2.548-8-9-58.158 1.545 0.847-63.638 9.999-75 4 3 7.001 9.001 11.001 12 14.149-8.112 39.291-19.276 56.999-7 1.281 8.186 7.516 10.462 10 17v14c2.334 2 4.667 4.001 7.001 6v22c5.131 11.94 8.645 8.452 7 24 10.901 8.418 15.61 18.596 31 23-0.016 9.338 3.786 21.42 9 26 2.666 0.334 5.333 0.667 8 1zm-93.001-91c-1.999 2-4 4.001-5.999 6v12c2.999 2.667 6 5.334 8.999 8 3-0.333 6.001-0.666 9.001-1 1.11-11.005 3.918-11.592 7-20-1.667-1.333-3.334-2.666-5-4-7.3 2.625-5.824 1.376-14.001-1zm4.001 18c0.999 0.667 2 1.334 3 2v1h-4.001v-1c0.334-0.666 0.667-1.333 1.001-2zm36 83c7.558-0.802 4.915-3.358 8.999-6 2.289-1.48 7.797 3.772 12.001 2 1.999-1.666 4-3.333 5.999-5-0.666-0.999-1.333-2-1.999-3-3.651-0.119-2.045 0.371-4-2 1.999-0.333 4-0.666 5.999-1-0.333-2.333-0.666-4.666-0.999-7-14.7-1.033-23.345-12.555-38.001-2-0.529 9.891-4.603 9.686-10 14 1.703 4.205 2.822 5.306 3 12-6.617 3.406-11.568 11.131-16.999 16 1.666 2 3.333 4.001 5 6 3.332-0.333 6.666-0.666 10-1 0.333-1.999 0.666-4 1-6 2.999-0.333 6-0.666 8.999-1 1.291-8.351 4.957-8.152 11.001-11v-5zm-77.001 4c1.393 1.923 0.102 0.599 2 2l-2-2zm-13 5c-0.651 4.318-0.599 4.61 1.001 8h5.999c0.334-0.666 0.667-1.333 1-2-1.333-1.999-2.666-4-4-6h-4zm-40 36h2-2z" fill="#98b387"/>
    <path d="m583 290c0.72 26.291-19.735 41.866-31 55-19.648-9.823 5.313 8.491-13-12-2 0.334-4.001 0.667-6 1-0.334 3.333-0.667 6.667-1 10h-13v2c-6.651 19.862 23.87 52.704 11 70h-8c0.333 4 0.666 8.001 1 12 2.666 0.334 5.333 0.667 7.999 1-13.462-0.406-16.129 3.934-20 14h-32.999v10c2.602 3.252 2.332 1.769 6 3-0.215 13.662 3.495 18.508 6 29-2.707 2.454-11.889 12.321-13.001 15-0.853 2.281-2.999 63-2.999 63 1.883 4.984 3.935 7.56 2.999 16h-4c-2.619-5.67-5.333-7.67-6.999-16-3.334-0.333-6.668-0.666-10-1 0.16-11.724-0.66-41.678-4.001-54-1.999-0.333-4-0.666-5.999-1 0.355-7.399 1.706-22.069-2-26-2.667-0.333-5.334-0.666-8-1-0.334-8.999-0.667-18-1-27h-25c-3.417 13.799-15.19 15.264-25 23-0.252 10.532 1.937 14.459 3.999 21-1.666 1.334-3.333 2.667-5 4-8.496-1.414-9.125-5.67-16-1-3.095-12.869-4.178-13.59-4-28-6.82-5.019-11.314-10.667-15-19h-5c-0.333-3.333-0.666-6.667-1-10-18.639-0.14-21.387 8.624-37 10-7.778-14.306-13.368-3.63-26-10-5.678-2.863-19.385-14.034-24-19-0.244-11.14-0.782-24.83 2.001-33 11.241-0.015 18.25 2.549 27.999 3 0.334 2.334 0.667 4.667 1 7h4c0.667-0.666 1.334-1.333 2.001-2-0.667-9.332-1.334-18.667-2.001-28h-5c-0.687-10.094-5.882-14.19-2.999-25 1.999-0.333 4-0.666 5.999-1v-7c3.667 1.334 7.334 2.667 11 4-0.394 10.179 1.168 12.878 5 18 3.667 1 7.334 2.001 11 3 0.334-0.999 0.667-2 1.001-3-1.393-7.249 7.68-12.469 11.999-17-0.333-3.999-0.666-8-1-12h2c5-1.666 10.001-6.333 15-8 4.739 1.511 7.658 0.963 10 5 0.667 4.333 1.334 12.668 2.001 17 8.253 1.64 5.792 7.712 10.999 12 1-0.333 2.001-0.666 3.001-1 0.333-3.333 0.666-6.667 1-10 10.504-0.18 14.407-6.154 19-12-1.337-10.271-6.572-8.781-3.001-16 37.751 0.325 36.7-8.371 64-16 13.936-3.894 20.406 1.107 32.001-3 5.645-1.999 16.853-12.419 24-14 17.998 0 57.1 5 75 5zm-190 192c1 0.334 2.001 0.667 3.001 1-0.334 1-0.667 2.001-1 3-1-0.666-2.001-1.333-3-2 0.333-0.666 0.666-1.333 0.999-2z" fill="#7ab07c"/>
    <path d="m458 0c0.333 1.666 0.666 3.333 0.999 4.999 2 2.334 4.001 4.667 6.001 7-2.133 10.384-9.541 23.421-5 33 14.989 0.614 27.984 6.691 37 10 11.597 4.258 32.73-6.88 45.999-7 1.334 2.667 2.667 5.334 4.001 8-4.719 7.764-0.779 11.813 0 22 4.67 0.917 5.44 0.883 6.999 4 5.534-1.825 6.981-4.736 8.001-10h7.999l7 7c4.106-1.79 10.441-14.884 11.001-20 12.464 3.388 32.3 9.108 41.999 13h18c8.505 3.577 9.81 13.713 22 15 0.106 26.136 3.626 39.961-1 63-6.133 3.719-19.34 0.901-27 5-18.271 9.778-60.789 52.854-61 80 4.691 2.116 5.692 7.415 8 11 9.782-0.417 13.164 2.433 13 12-11.374 8.352-12.499 16.477-17 33-22.183 6.162-48.748-7.739-78.999-1-9.826 2.189-19.338 10.984-30.001 14h-21.999c-13.601 3.828-32.354 10.29-44 14h-38c-3.661 1.362-6.438 8.285-10.001 10-7.448 3.586-12.084-3.054-17.999-2-6.101 1.871-9.358 7.864-18 9-2.508-4.179-10.799-6.527-17-7-2.4 5.417-5.05 12.213-12 14-25.451-12.099-37-41.007-37-81v-22c4.666-6.999 7.333-14 12-21 0.333-2.999 2.666-6 3-9 3.999-3.666 5-8.333 9-12 2.888-4.826 2.467-12.789 5-17 9.1-3.789 14.1-9.195 22-16 0-3.333 2.999-6.667 2.999-10 8.333-0.333 16.668-0.666 25.001-1-0.174-6.037-0.077-7.417 3-10 6.672 3.996 10.565 9.677 19.999 11 2.334-4.666 4.667-9.333 7.001-14-3.01-2.478-3.654-8.18-2-13 4.3-0.404 3.911-0.327 6-2-8.086-13.263 3.102-23.18 3.999-37-2.333-4.666-4.666-9.333-6.999-14-6.77-21.082 14.16-48.479 21.999-57 1.667 0.334 3.334 0.667 5.001 1 1.202 7.621 4.865 6.41 9 10 3.666-0.333 7.333-0.666 11-1-0.255-6.662 0.75-13.047 2-17 20.16 0.152 19.299-9.806 39-9.999zm39.999 208c-7.499 14.31-9.429 37.116-26 42v15c1.334 1.667 2.667 3.334 4 5h15.001c4.63-5.637 7.59-8.44 15-11 0.703-16.29 14.223-51.349-3.001-50-1.666-0.333-3.333-0.666-5-1zm88.001 21c2.27 3.331 2.326 3.963 0 7h-1.001c0.334-2.333 0.667-4.666 1.001-7zm-184 34c-2.28 6.211 7.233 24.901 11.999 28 8.736-1.872 11.621 3.98 20.001 2 0.333-1.999 0.666-4 0.999-6 4.69 0.138 6.841 0.185 9-2v-15c-14.24-0.485-11.709-0.345-26 0-1.999-2.333-4-4.666-5.999-7h-10z" fill="#b2a9c6"/>
    <path d="m232 314c0.333 4.667 0.666 9.334 0.999 14 1 0.334 2.001 0.667 3 1 6.328 2.365 17.859-0.69 24 0-0.106 13.152 2.695 25.599 4 35 0.899 6.471-2.099 6.725-4 10-3.111 9.347 0.271 32.474 0 46-0.026 13.163-8.791 23.766-6 34 3.361 11.136 13.724 17.846 20 26-0.333 0.667-0.666 1.334-0.999 2h-9.001c-2.202 12.876-12.199 8.88-17 17-7.602 12.86-0.999 26.413 0 39-7.786 5.418-10.244 24.176-4 34-9.304 6.506-19.287 6.954-23 19 10.637 7.564 1.523 50.746-4 55-2.661-2.183-2.664-3.39-4-7-2.666-0.333-5.333-0.666-7.999-1-5.238 8.563-13.12 14.247-25.001 17-1.246-6.403-0.391-10.108-7-9-2.333-1.666-4.666-3.333-7-5 0.525-26.028-9.469-41.697-21-56 2.261-5.247 12.182-13.419 5.001-21-2.875-0.659-5.221 0.241-8.001-2 3.891-5.053 3.283-12.399 3-22-3.333-1.666-6.667-3.333-10-5 0.189-22.406-3.149-33.578-4.999-47h-5.001c-0.581-5.104-0.791-4.275-3-7-6.034 1.692-7.165-1.066-11-4-2.883-12.786-11.601-4.648-22.999-9-3-2.333-6.001-4.666-9-7-4.551-1.464-25.066 4.784-36 3-1.24-12.269-9.035-3.809-14.001-11v-8c-2.198-4.691-10.541-5.266-12.999-9-1.437-2.181-6.393-15.418-7-17-3.82-9.439-3.83-30.301 0-39 2.333-1.999 4.666-4 7-6 3.511-7.727 1-44 1-44 10.759-10.504 48.783-57.579 76-46 20.92 8.549 29.947 15.744 55.999 21 1.622 4.528 2 9.527 6 12 6.778 2.711 60.907-2.793 78.001-3zm-43.001 140c5.667-0.333 11.334-0.666 17-1-0.333-6.332-0.666-12.667-0.999-19h-12.001c-2.333 2.667-4.666 5.334-7 8 1.703 4.205 2.822 5.306 3 12zm-174-13c0.999 0.667 2 1.334 3 2v1h-3v-3zm0 10c3.582 1.782 1.183-0.53 3 3h-3v-3zm186 13c-3.359 5.597-0.805 8.703 0.999 14-1.999 1.667-4 3.334-6 5 1.334 4 2.667 8.001 4 12h5.001c0.333-0.333 0.666-0.666 0.999-1 0.41-8.409 7.281-22.54 1-29-1.999-0.333-4-0.666-5.999-1zm1.999 5h2.001c-1.393 1.923-0.102 0.599-2.001 2v-2zm100 12h3l2 2c-0.999 1-2 2.001-3 3h-0.999c-1.435-2.863-1.592-1.454-1.001-5zm-14 7h3c3 3 6.001 6.001 9.001 9v4c-7.026 2.963-8.586 7.574-11 15-8.183-0.032-8.712-1.767-13-5v-1c1.433-5.096 3.146-11.377 4.999-18 4.882-0.837 4.598-1.103 7-4zm-28 28h3c-0.666 1-1.333 2.001-2 3-0.666-0.333-1.333-0.666-2-1 0.334-0.666 0.667-1.333 1-2zm-137 17c3.583 1.782 1.184-0.53 3 3h-3v-3zm131 3c6.333 0.334 12.668 0.667 19 1v39c-3.333 3.667-6.667 7.334-10 11-5.158-1.524-6.369-4.182-10-7 0.334-14.665 0.667-29.334 1-44zm-11 14c2.617 1.776 1.363 0.621 1.001 3h-1.001v-3zm-93 55c3.583 1.782 1.184-0.53 3 3h-0.999c-0.667-0.999-1.334-2-2.001-3zm0 10c1.334 0.667 2.667 1.334 4 2-1.333 0.334-2.666 0.667-4 1v-3zm80 3c2.271 3.331 2.327 3.963 0 7h-1v-2c-0.468-2.725-0.2-2.245 1-5zm-1 21h3v6c-1.333-0.333-2.666-0.666-3.999-1 0.333-1.666 0.666-3.333 0.999-5zm-28 3c3.828 1.321 2.791-1e-3 4 3h-3c-0.333-0.999-0.666-2-1-3zm114 3c1.525 2.286 1.827 1.215 1 4l-2-2c0.334-0.666 0.667-1.333 1-2z" fill="#9cbd8b"/>
    <path d="m916 574c0.396 25.566-36.463 62.486-55 69-0.333 4.333-0.666 8.668-1 13-11.161 2.314-11.344 13.487-25.999 18-0.5 12.205-7.05 15.254-11.001 26-6.666 0.334-13.334 0.667-20 1-2.331 18.861-26.51 30.25-34 44v15c-2.333 2-4.666 4.001-6.999 6-4.047 9.775 0.522 19.149-4.001 26-8.079 1.39-6.359 5.678-15.999 7-2.334-2.999-4.667-6-7.001-9 0.261-9.444 3.786-19.29 8.001-25 5.532-0.519 6.388-2.458 8.999-6 0.289-17.365-4.169-24.545-5.999-32 20.939-10.18 24.984-68.25 33-93v-18c4.826-13.11 10.409-19.542 9.999-38-10.456-7.825-14.063-28.203-18-42h-4.999c-0.046-8.426-2.503-10.763-4-15-5.492-15.53 5.35-25.456 2-38h2c12.952-5.102 31.31 2.899 38.999-1 0.667 0.334 1.334 0.667 2 1v12h6.001c1.333-1.666 2.666-3.333 4-5v-8c2.333-0.666 4.666-1.333 6.999-2 0.807-5.798 2.117-5.785 5.001-9 14.76-0.892 23.155 6.901 32.999 6 0.831 7.281 1.386 8.157 4.001 12 7.332 2.334 14.667 4.667 22 7-0.179 5.76 0.388 9.73 2 13 3.999 0.334 8 0.667 12 1 6.104 23.747 52.705 0.754 29.999 60-6.779 1.339-7 3.684-16 4zm-136 13h4.999v4h-4.999v-4zm-28.001 113h3c-0.333 1.334-0.666 2.667-1 4h-1c-0.333-1.333-0.666-2.666-1-4z" fill="#c7ab93"/>
    <path d="m676 509c2.333 0.334 4.666 0.667 7 1 3.268 5.705 9.973 6.975 14 12v2c-2 1.667-4.001 3.334-6 5-2-1.333-4.001-2.666-6-4-2 2.334-4.001 4.667-6 7 2.331 5.976 5.553 12.219 3 21-6.83 0.92-9.053 2.865-18 3-3.533-6.643-11.409-15.548-7.001-21 0.334-1.666 0.667-3.333 1.001-5 5.116 0.301 9.61 0.391 12-2 1.999-6.332 4-12.667 6-19zm-82 122c-3.334 0.334-6.668 0.667-10.001 1-0.13 9.299-2.816 14.379-4 19 1.334 4.667 2.667 9.334 4 14-1.107 3.449-5.498 5.207-3 12 1.667 2.334 3.334 4.667 5.001 7 8.848-0.303 8.557-2.802 16-4 0.666-2.333 1.333-4.666 1.999-7 3-0.999 6.001-2 9.001-3 1.666 1.334 3.333 2.667 4.999 4v1c-1.333 8-2.666 16.001-3.999 24-5.717 0.822-5.215 0.158-6 6 2.507 5.166 2.406 2.934-1.001 8-8.393-0.257-13.016 0.956-17.999 3-0.334-1.999-0.667-4-1.001-6-14.393 0.309-17.592-3.169-27-7-0.333 0.334-0.666 0.667-1 1 0.125 14.216-14.648 23.357-26 15 0.448-10.79-0.499-14.562-5-20h-15c-0.333-4.332-0.666-8.667-0.999-13-6.84-0.835-5.107-1.755-7.001-7h-10c-3.198 6.63-18.79 11.995-28 12-5.248-2.799-12.546-2.292-18-6 4.461-13.332-2.544-25.173-8-32 1.001-15.273 6.686-26.327 13.001-36-1-2.666-2.001-5.333-3.001-8 6.161-2.627 14.103-5.682 21-9 0.234-8.699 2.991-6.653 6-11 1.55-3.728 0.459-6.118-0.999-9-7.543-0.617-11.686-5.166-12-13 0.666-0.999 1.333-2 1.999-3 23.331-1.132 32.258-12.59 49.001-20 6.665-0.333 13.333-0.666 19.999-1-0.578-4.594-1.744-3.757-0.999-7 4.666 0.334 9.333 0.667 13.999 1 12.121 8.837 31.408 18.629 46 24 9.681 3.564 14.534-3.65 24.001-4 12.264 12.708 15.296 13.588 1 33-18.843-0.591-24.627 1.623-34.001 9v1c-0.138 5.534 0.459 8.881 2.001 12 1.333 0.334 2.666 0.667 4 1-1.719 4.768 0.714 8.764 1 18zm47.999 0c-7.729 0.991-9.165 5.153-13.999 9-0.334 1.667-0.667 3.334-1.001 5h-6.999c-3.667-5.332-7.334-10.667-11-16 0.728-8.337 3.922-7.655 7-13-0.334-0.666-0.667-1.333-1.001-2-8.692 0.326-11.538-0.864-16-4v-8c1.667-1.333 3.334-2.666 5-4 6.605 0.308 7.173 1.299 10.001 5-2.313 3.645-2.875 2.151-1 6 12.84 1.445 27.154 9.726 28.999 22zm-42 11c3.828 1.321 2.791-1e-3 4 3h-4v-3zm-31 79c9.237-0.386 13.246 0.675 18 4v12c-3.999 3.667-8 7.334-11.999 11h-1c-1.334-2.666-2.667-5.333-4-8h-8v-15c5.136-0.76 4.653-0.804 6.999-4z" fill="#c195c5"/>
    <path d="m323 657c20.118 0.693 25.559 10.651 44.999 1 2.281 9.345 18.731 11.728 30 8 0.334-1.999 0.667-4 1.001-6 7.999-0.999 16-2 24-3-0.138 4.69-0.185 6.841 1.999 9 8.313 10.321 49.568 25.964 63.001 29 3.417 22.401 17.707 49.796 3 72-12.405 0.259-9.871 5.434-16.001 11-8.815-2.175-11.563 2.495-21.999 3-5.327-7.338-14.899-6.826-18-17-13.264 0.692-23.019-1.542-27-10-7.126-0.872-14.269 5.631-20 3-8.585-3.399-31.83-7.345-46.001 0-3.999 4.667-8 9.334-12 14-5.712 2.677-11.711-0.598-15.999 1v19c-22.608 0.171-33.25-6.526-52.001-7-0.333-14.727-7.11-14.799-10.999-24-10.42-24.163 10.652-41.295 10.999-59 23.557-2.742 34.917-23.445 51.001-36 3.107 1.455 3.29 1.756 7 1 0.999-2.999 2-6 3-9zm61 103c-0.176 3.462 1.869 1.758-2 4 0.666-1.333 1.333-2.666 2-4zm10 7c3.16 3.136 0.262 3.849-2.001 7h-3.999c1.999-2.333 4-4.666 6-7zm-88.001 31c2.667 2.334 5.334 4.667 8.001 7v8h-4c-1.707-4.538-1.164-4.419-7.001-5 2.831-3.332 2.78-4.001 3-10z" fill="#c2ab88"/>
   </g>
   <path d="m879.46 561.38-3.069 0.271c-0.758-0.226-1.454-0.011-2.085 0.643-0.632 0.655-1.11 1.501-1.435 2.539-0.615 3.05-0.904 4.413-0.471 6.466-0.01 2.055-0.179 4.277 0.146 6.669 0.035 1.896-0.398 2.9-1.3 3.013-0.904 0.932-1.698-0.688-2.384-2.403-0.253-0.903-0.371-1.737-0.352-1.875 0.018-1.397 0.063-2.278 0.136-3.271-0.073-0.679-0.172-2.629-0.298-3.826-0.127-1.195-0.172-2.493-0.136-3.893 0.036-0.45 0.027-0.891-0.027-1.32s-0.226-0.869-0.514-0.69c-0.832-1.758-1.526-2.548-2.086-3-0.335-0.451-1.273-0.722-2.139-0.813h-3.088c-0.939 0-1.969-0.135-3.087-0.406l-3.9 0.813c-0.65 0.316-1.238 0.598-1.761 0.846 0.25 0.249-1.11 0.418-1.76 0.508-0.867 0.316-1.409 0.768-1.625 1.552 0.575 0.389-0.416 1.134-0.596 2.036-0.325 1.445-0.632 3.344-0.921 4.131-0.289 1.309-0.488 3.383-1.192 4.197-0.325 1.671-0.794 3.149-1.408 4.435-0.614 1.287-1.462 2.787-2.546 4.503-0.752 1.858-2.609 1.816-3.385 0.846-0.777-0.971-0.75-1.998 0.081-4.028 1.48-1.851 2.852-3.826 4.512-5.925 0.371-2.099 0.977-4.118 1.121-6.06-0.144-1.354-0.433-2.177-0.641-2.471-0.659-0.293-1.363-0.305-2.338-0.034-0.686 0.452-1.373 0.904-2.058 1.354-0.687 0.452-1.408 1.016-2.167 1.151-1.841 0.498-2.971-0.056-3.385-1.659-0.416-0.926 0.117-3.216 1.598-4.841 0.975-0.902 1.985-1.512 3.033-1.135 1.047-1.008 2.527-1.324 3.196-1.11 2.661-1.117 3.204-2.043 3.764-3.307 0.56-1.083 0.479-3.001-0.243-4.583-0.217-1.443-0.145-1.973 0.216-2.222 0.361-0.247 0.813-0.169 1.355 0.237 0.541 0.769 0.956 1.524 1.245 2.269 0.289 0.744 0.794 1.546 0.813 2.403 0.288 1.355 1.631 2.348 1.571 2.98 0.758 0.632 1.642 1.015 2.654 1.151l2.762-1.625c0.289-0.361 0.424-0.711 0.407-1.05-0.019-0.338-0.046-0.688-0.082-1.049-0.216-1.128-0.361-2.189-0.433-3.183 0.692-0.992 0.342-2.053 0.342-3.182-0.523-0.496-0.523-0.925 0-1.286-0.378-0.361-0.162-0.722 0.2-0.553 0.469-0.846 0.911-0.937 1.57-0.802 0.171 0.136 0.614 0.317 1.084 0.542 1.408 0.904 2.248 1.862 2.519 2.878 0.27 1.015 0.099 2.291-0.515 4.122-0.217 0.245-0.416 0.854-0.596 1.531-0.181 0.677-0.162 1.265 0.054 1.761 0.144 0.316 0.388 0.485 0.732 0.508 0.342 0.023 0.677 0.124 1.002 0.304 1.75 0.904 2.925 0.948 4.333 0.136 1.408-0.813 2.076-2.325 2.004-4.24-0.253-1.516-0.361-2.667-0.325-3.75s0.072-2.211 0.109-3.385c0.071-1.58-0.443-2.968-1.544-3.885-0.877-1.475-2.213-2.186-3.331-2.412-1.95-0.09-3.576-0.136-5.471-0.136-1.698 0-3.594 0.407-5.688 1.219-0.795 0.739-1.535 0.52-2.221 1.287-0.686 1.092-1.156 1.716-2.112 2.843-1.59 2.123-3.052 2.563-4.388 1.321-1.336-1.241-1.968-3.013-1.706-5.315 0.71-1.264 0.163-2.381 0.65-3.352 0.488-0.97 1.309-1.478 2.465-1.523 1.047-0.587 2.049-1.106 3.006-1.558 0.956-0.45 2.013-0.88 3.169-1.286l0.433-0.136c0.469-0.044 0.902-0.044 1.3 0 0.397 0.046 0.884 0.181 1.463 0.407l6.229 0.135c0.902 0.046 1.778-0.034 2.627-0.237 0.848-0.203 1.742-0.305 2.681-0.305 2.925 0.317 5.119 1.524 6.581 3.623 1.463 2.099 1.616 4.976 0.461 8.633-0.398 1.218-0.596 2.393-0.596 3.862 0 0.787 0.09 2.006 0.271 3.315 0 0.541 0.27 1.162 0.216 1.862 0.144 0.7 0.488 1.343 1.03 1.929 0.938 0.362 2.444 0.914 2.789 1.134 0.921 0.23 1.869-0.411 2.844-0.186 1.372 0.677 2.112 1.866 2.671 2.675-0.342 1.106-1.011 1.862-2.04 2.268zm-97.494-351.24 0.217 5.552c0.017 1.129-0.344 2.235-0.487 3.813-0.145 1.38-0.199 1.785-0.163 3.093-0.073 0.858-0.235 1.795-0.073 2.81-0.668 1.016-1.173 2.447-1.931 1.998-1.12 0.586-2.095 0.936-2.925 1.049-0.831 0.112-1.806 0.034-2.925-0.237-0.039-0.045-1.174-0.113-1.679-0.474-0.506-0.271-1.084-0.518-1.734-0.744-2.166-0.271-3.856-0.587-5.356-0.525-2.769-0.784-4.809-0.92-6.939-0.83-1.482 0.227-2.863 0.542-4.144 0.948-1.282 0.407-2.664 0.723-4.144 0.948-1.264 0.451-2.447 0.925-3.548 1.422-0.805 0.496-2.302 0.97-3.602 1.422h-0.704c-1.3 0.451-2.411 0.169-3.331-0.846-0.921-1.016-1.544-2.269-1.869-3.758-0.217-1.354-0.362-2.618-0.433-3.792-0.073-1.173-0.037-2.437 0.108-3.792l-0.433-7.651c0-0.406-0.064-0.755-0.19-1.049-0.127-0.293-0.244-0.62-0.352-0.982-0.145-1.038-0.199-2.053-0.163-3.047 0.036-0.992 0.055-2.008 0.055-3.047 0.288-1.083 0.505-1.997 0.65-2.742 0.269-0.745 0.269-1.284 0-2.674 0.108-0.722 0.279-1.411 0.514-2.065s0.424-1.343 0.569-2.065l0.596-0.948c0.577-0.361 1.074-0.407 1.84-0.136 0.064 0.784 0.308 0.813 0.381 1.625l0.108 2.235c0.36 0.903 0.55 1.67 0.569 2.302 0.017 0.632-0.064 1.467-0.244 2.505-0.362 1.354-0.659 2.686-0.894 3.995 0.44 1.309-0.352 2.708-0.352 4.198 0.342 1.038 0.792 2.031 0.972 2.979-0.819 0.948-0.828 1.987-0.27 3.114-0.522 1.219-0.224 2.529 0.3 3.927 0.523 1.994 1.291 2.709 2.302 3.927l0.379 0.407c1.878 0.406 3.657 0.485 5.336 0.237s3.511-0.688 5.498-1.321c1.697-0.721 2.762-1.596 3.196-3.487 0.433-1.601 0.65-3.26 0.65-4.976 0.071-1.896 0.604-2.9 1.597-3.013 0.993-0.112 1.688 0.711 2.482 2.471-0.179 1.219-0.044 2.348 0.01 3.386s0.496 2.166 1.327 3.385c1.192 1.039 2.401 1.671 3.629 1.896 1.228 0.226 2.456 0.384 4.134 0.942 0.75-0.377 1.463-0.355 2.366-0.4 0.903 0.63 1.842-0.294 2.817-0.745 0.289-0.045 0.623-0.158 1.002-0.015 0.955-0.504 0.677-0.775 0.894-1.136s0.343-0.7 0.379-1.016c0.036-0.315 0.162-0.654 0.162-1.016 0.253-2.256 0.506-4.401 0.651-6.432 0.143-2.031 0.108-4.22-0.109-6.568-0.433-0.542-0.731-2.065-0.894-2.809-0.162-0.745-0.226-1.659-0.189-2.743-0.398-1.127-0.588-2.189-0.479-3.182 0.18-0.992 0.442-1.873 1.454-2.641 1.119 0.091 2.103 0.768 2.952 2.032 0.848 1.264 1.273 2.573 1.273 3.927-0.253 1.76-0.371 3.453-0.352 5.078 0.018 1.625-0.136 3.385-0.461 5.281zm-7.041 5.417c-0.362-0.18-0.669-0.315-0.525-0.406-0.649 0.414-0.974 0.414-1.11 0l-2.59 1.489c-0.759 0.775-1.499 0.677-2.221 0.813-0.723 0.135-1.139 0-2.167-0.038-1.516-2.173-2.6-4.103-2.692-6.158-1.208-2.053-0.685-3.847 1.013-5.382 0.65-0.767 0.867-1.602 0.65-2.506 0.377-0.902-0.686-1.579-1.408-2.031-1.12-0.451-1.761-1.229-1.923-2.336-0.163-1.105 0.027-2.177 0.569-3.216 0.65-1.444 1.435-2.81 2.356-4.096 0.921-1.287 1.724-2.125 2.41-4.029-0.036-0.361-0.073-0.722-0.108-1.083-0.037-0.361 0.035-0.745 0.217-1.151l0.216-0.542c1.3-0.677 2.968-0.361 3.908 0.948 0.93 1.31 0.588 2.731-0.279 5.102-0.325-0.385-0.479 0.033-0.46 0.416 0.018 0.384 0.819 0.784 0.785 0.846 1.734 0.723 2.862 1.784 3.386 3.183 0.523 1.399 0.406 3.092-0.352 5.078l-2.329 2.234c-0.101 0.181-0.434 0.683-0.542 0.508-0.108 0.159 0.035 0.35 0.433 0.576 1.084 0.587 1.995 1.658 2.736 3.216 0.739 1.557 1.362 2.945 1.868 4.164 0.109 0.722 9e-3 1.569-0.298 2.539-0.307 0.971-0.821 1.591-1.543 1.862zm-4.767-22.412h-0.867c-0.541 0.091-1.047 0.339-1.516 0.745-0.47 0.406-0.921 0.994-1.354 1.761 0.169 0.858 0.079 1.535-0.163 2.031 0.252 0.497 1.082 1.061 1.571 1.693 0.631 0.045 0.433 0.033 0.65-0.034 0.217-0.068 0.415-0.102 1.271-0.102 0.588-0.767 1.95-1.635 1.518-2.607 0.198-0.97 0.702-2.132-1.11-3.487zm0.542 13.542c-0.145-0.315-0.298 0.048-0.461-0.88 0.531-0.271-0.406-0.474-0.731-0.61-0.398 0.362-0.731 0.735-1.002 1.118-0.271 0.384-0.569 0.802-0.894 1.252-0.361 0.578-0.686 0.914-0.975 1.388s-0.398 1.005-0.325 1.591l0.217 0.339c2.371 1.039 2.834 1.77 4.062 0.44 1.228-0.745 1.264-2.02 0.109-4.638zm-9.967-10.766c-0.036 1.942-0.036 3.815 0 5.62 0.036 1.806-0.217 3.724-0.758 5.755-0.434 0.813-0.867 1.185-1.3 1.118-0.434-0.068-0.741-0.508-0.921-0.529-0.108-1.063-0.181-1.344-0.217-1.638-0.036-0.293-0.073-0.598-0.108-0.914 0.072-2.438 0.09-4.75 0.054-6.94-0.036-2.189-0.162-4.525-0.379-7.008 0.072-1.083 0.126-2.099 0.162-3.047s0.055-1.963 0.055-3.047c0-0.451 0.099-0.902 0.297-1.354 0.198-0.451 1.352-0.745 0.84-0.412 0.505-0.648 1.047-0.524 2.372-0.096-0.17 0.43 0.282 1.005 0.607 1.727 0.217 1.749 0.361 1.704 0.434 2.539 0.071 0.836 0.108 1.726 0.108 2.674 0.161 1.039-0.081 1.942-0.352 3.366-0.271 0.111-0.047 1.059-0.894 2.186zm-7.421 20.753c-0.082 0.023-0.614 0.147-0.975 0.741-0.723 0.038-1.354 0.308-1.896 0.444-0.541 0.135-1.156 0.294-1.841 0.474-0.903 0.226-1.842 0.101-2.817-0.373s-1.95-1.184-2.925-2.132c-1.156-1.444-1.625-2.878-1.408-4.3 0.216-1.422 1.047-2.786 2.491-4.096 0.722-0.542 1.479-0.697 1.849-2.438-0.676-1.083-1.018-1.059-1.29-2.437-0.812-0.226-1.065-0.112-1.209-0.847-0.144-0.338-0.091-0.525-0.433-1.049-0.433-0.767-0.713-1.5-0.678-2.201-0.289-0.699 0.45-1.455 0.353-2.268l0.65-0.948c0.325-0.579 0.713-1.739 1.165-3.047 0.451-0.857 1.091-1.828 1.923-2.911l0.975-4.131 0.433-0.676c0.505-0.18 1.029-0.248 1.571-0.203 0.541 0.045 1.064 0.203 1.571 0.474 0.577 0.722 1.029 1.523 1.354 2.403 0.325 1.132 0.379 1.727 0.162 2.539-0.073 0.452-0.073 0.779 0 0.982 0.072 0.203 0.289 0.576 0.65 1.117 0.686 0.994 1.192 2.031 1.517 3.115 0.325 1.083 0.766 2.257 0.596 3.521-0.217 1.778-0.93 3.171-2.14 4.773-1.21 1.603-2.483 2.765-3.819 3.487-0.578 0.135-1.146 0.7-1.706 1.693s-0.948 1.828-1.164 2.505c-0.109 0.677 8e-3 1.23 0.352 1.659 0.342 0.429 0.785 0.643 1.327 0.643 0.541 0.738 1.29-0.203 1.598-0.339 1.162-0.135 1.091-0.338 1.706-0.609 0.325-0.767 0.505-1.489 0.542-1.564 0.035-1.28 0-2.024-0.109-2.837-0.108-0.677-0.036-1.162 0.217-1.456 0.252 0.463 0.668 0.123 1.246-0.237 1.48 1.3 2.364 2.483 2.654 4.74 1.116 2.258-0.199 4.04-1.463 5.349-0.397 0.271-0.74 0.418-1.029 0.44zm-5.633-16.148c0.938 0.361 1.842 0.113 2.708-0.745 1.227-1.58 2.543-2.436 1.436-3.487-0.271-0.745-1.021-1.568-2.248-2.472-0.975 0-1.834 0.384-2.375 1.151-0.939 0.769-1.399 1.739-1.579 2.912 0.919 1.4 1.118 2.28 2.058 2.641zm-113.69 223.87c-0.885 0.045-1.454-0.451-1.706-1.49-0.181-0.496-0.307-0.982-0.379-1.456-0.073-0.474-0.091-0.958-0.054-1.455l0.325-2.641c-0.29-2.031-0.633-3.961-1.029-5.789-0.398-1.828-0.94-3.735-1.625-5.721-0.381-1.399-1.048-2.211-1.625-2.438-0.579-0.225-1.319 0.45-2.221-0.271-1.337-0.586-2.511-0.669-3.521-1.489-1.012-0.407-2.203-0.429-3.575-0.068-1.265-0.18-2.465-0.237-3.602-0.169-1.138 0.067-2.339 0.35-3.602 0.846l-1.192 0.339c-0.831 0.045-1.625 0.079-2.383 0.101-0.39 0.024-1.553 0.034-2.384 0.034l-1.57-0.474c-1.084 0.452-2.113 1.371-3.088 1.083-0.975 0.271-1.969 0.836-2.979 1.918-0.569 1.39-1.238 2.43-1.436 3.13-0.198 1.52-0.496 2.43-0.893 2.874-0.145 1.219-0.253 2.393-0.325 3.521 0.395 1.129-0.217 2.348-0.434 3.656-0.253 1.039-0.479 2.157-0.551 3.352-0.325 1.197-0.803 2.957-1.561 3.887-0.479 0.029-1.039 0.243-1.381 0.04-0.344-0.203-0.588-0.49-0.732-1.456 0-1.444 0.126-2.81 0.38-4.096 1.134-1.286 0.433-2.719 0.541-4.3 0.434-1.354 0.776-2.64 1.029-3.859s0.451-2.527 0.704-3.279c-0.578-2.138-0.713-3.435-0.514-4.541 0.198-0.449 0.821-2.426 1.869-3.961 0.433-0.496 0.83-0.699 1.191-0.61 0.604 0.091 0.74 0.385 1.138 0.881 0.397 0.451 0.776 0.677 1.137 0.677s0.759 0.134 1.192-0.406c0.975-0.948 2.031-1.558 3.169-1.829 1.137-0.27 2.211-0.406 3.223-0.406 0.288-0.044 1.405-0.124 0.839-0.237 0.271-0.112 0.55 2e-3 0.84-0.44 1.136-1.399 1.119-2.617 1.506-3.656-0.893-1.038-0.568-2.347 0.75-3.927l-0.089-0.407c0.252-0.36 0.532-0.507 0.839-0.44 0.306 0.068 0.659 0.305 1.056 0.711 0.434 0.452 1.604 0.813 1.165 1.084 0.343 0.27 0.767 0.541 1.273 1.037 0.758 0.633 1.489 1.412 2.194 2.111 0.704 1.249 1.453 1.366 2.248 1.997 1.625-0.135 3.15 0.046 4.577 0.542 1.426 0.497 2.987 1.219 4.685 2.77 0.325-0.422 0.982-0.129 0.921 0.277 0.288 0.406 0.613 0.723 0.975 0.948 0.577-0.044 1.146 0.034 1.796 0.237 0.47 0.203 1.038 0.621 1.616 1.253 1.481 1.851 2.203 3.578 2.167 5.179-0.036 1.603-0.199 3.397-0.487 5.383-0.037 0.362 0.017 0.7 0.162 1.016 0.144 0.316 0.306 0.655 0.902 1.015-0.198 1.354-0.072 2.664-0.035 3.927 0.035 1.265 0.054 2.597 0.054 3.995-0.108 0.948-0.605 1.445-1.49 1.49zm-76.056 172.73c-0.795 0.091-1.535 0.181-2.221 0.271-0.452 0.091-1.408 0.135-2.166 0.135-0.579 0-1.192 0.135-1.842 0.406-0.164 0.271-1.228 0.745-1.733 1.422-0.29 0.406-0.47 0.802-0.542 1.185-0.073 0.384 0.108 0.667 0.542 0.846 1.191 0.317 2.22 0.786 3.609 0.948 0.345 0.317 1.392 0.181 2.62-0.406 1.119 0 2.76 0.249 2.329 0.745 0.433 0.497 0.577 1.445 0.433 2.844-0.253 1.885-0.497 2.911-0.731 4.265-0.235 1.354-0.371 2.8-0.406 4.334-0.037 1.535-0.027 3.002 0.027 4.401s0.045 2.889-0.027 4.468c-0.037 0.948 0.054 1.874 1.135 2.776-0.648 0.904-0.485 1.852-0.377 2.844 0.325 2.799 0.559 6.167 0.704 8.024 0.144 2.55 0.325 5.337 0.542 8.362 0 0.225-0.019 0.45-0.054 0.677-0.037 0.225-0.091 0.474-0.163 0.744 0.098 0.857-1.075 1.297-1.472 1.321-0.65 0.022-1.038-0.508-1.29-1.591-0.325-3.025-0.542-5.88-0.65-8.566 0.71-2.685-0.452-5.585-1.029-8.7 0.089-1.184-0.19-3.633 0.179-5.484 0.54-1.851-0.686-3.521-1.588-5.011-0.372-0.721-1.589-1.173-2.6-1.129-1.011-0.405-1.914-0.405-2.708 0h-1.869c-0.596 0-1.201-0.09-1.814 0.181-0.904 0.497-1.834 0.26-2.79-0.711-0.741-0.97-1.418-2.019-1.381-3.148 0 0.188-0.046-0.948-0.136-1.354-0.09-0.407-0.208-0.835-0.352-1.287-0.398-1.308-0.479-2.583-0.244-3.825 0.235-1.241 0.767-2.539 1.598-3.894 0.397-0.406 0.821-0.677 1.273-0.812 0.451-0.135 0.912-0.293 1.382-0.474 0.866-0.406 1.254-1.038 1.164-1.626-0.09-1.127-0.551-1.692-1.381-1.963-0.578-0.179-1.083-0.117-1.517-0.406-0.433-0.09-0.957-0.315-1.571-0.677-0.578 0.036-0.903-0.62-0.975-0.564-0.072-1.185 0.109-1.76 0.542-2.347 0.469 0.377 0.921-0.429 1.354-0.474 0.434-0.045 0.902-0.068 1.409-0.068 0.758-0.315 1.516-0.681 2.275-1.422 0.758-0.631 1.462-1.489 2.112-2.573l0.325-0.406c0.325-0.271 0.631 0.45 0.921-0.135 0.891 0.18 0.542 0.541 0.758 1.083 0.883 1.354 1.065 2.325 1.679 2.911 0.614 0.588 1.463 0.723 2.546 0.407l3.954-1.084c1.517 0 2.248 0.667 2.194 1.998-0.054 1.332-0.713 2.178-1.977 2.539zm-10.671 8.531c-0.758 0.091-1.553 0.159-2.383 0.203-0.65 0.316-0.885 0.711-0.704 1.527 0.18 0.132 0.523 0.325 1.029 0.234 0.902-0.361 1.706-4e-3 2.41-0.234 0.704-0.22 1.525-0.037 3.176 0.82-0.169 0.361 0.065 1.73-7e-3 1.411-0.073 0.519-0.379 0.959-0.921 1.32-0.975 0.317-1.878 0.452-2.708 0.406-0.831-0.044-1.698-0.135-2.6 0.333-0.687-0.45-1.093-0.434-1.219 0.04-0.127 0.474 0.099 0.959 0.785 1.456l0.542 0.27c1.444 0.181 2.825 0.237 4.144 0.17 1.318-0.068 2.771-0.079 4.36-0.034 0.217 0 0.469-0.102 0.759-0.305 0.288 0.373 0.487-0.508 0.596-0.914 0.793-0.913 1.145-2.414 1.056-3.003-0.091-1.217-0.623-2.08-1.598-3.632l-0.596-0.339h-0.542c-0.65 0.227-1.174 0.294-1.57 0.203-0.398-0.09-0.904-0.157-1.517-0.203-0.903 0.091-1.544 0.181-2.492 0.271zm-6.391 12.966c0.288 0.61 0.848 0.779 1.679 0.508 0.902-0.18 1.796-0.237 2.681-0.169 0.884 0.265 2.039 0.845 2.735 0.169 0.794 0.271 1.228 0.846 1.3 1.727 0.072 0.88-0.541 1.501-1.841 1.861-0.687 0.091-1.544 0.193-2.573 0.458-1.029-0.04-2.05 0.13-3.061 0.355-0.361 0.045-0.533 0.181-0.514 0.406 0.018 0.227 0.189 0.452 0.514 0.677 0.469 0.362 0.912 0.498 1.327 0.542 0.415-0.225 1.002-0.271 1.436-0.271 1.155-0.18 2.184-0.101 3.087 0.237 0.903 0.339 1.896 1.141 2.98 2.404 1.118 1.896 1.48 4.006 1.083 6.331-0.398 2.325-0.734 3.757-2.954 4.299-1.253 0.271-1.515 0.576-1.461 1.49 0.054-0.237 0.28 0.225 0.677 0.812 0.65 0.496 1.273 0.925 1.869 1.287 0.596 1.251 1.273 0.992 2.031 1.895 0.506 0.767 0.623 1.534 0.352 2.302-0.27 0.767-0.804 1.484-1.597 1.016-1.373-0.181-2.501-0.723-3.386-1.625-0.885-0.903-1.779-2.212-2.681-3.927-0.687-1.625-1.184-2.177-1.934-1.659-0.75 0.519-2.093 1.41-2.237 2.675l-0.217 3.114c-0.216 1.263-0.659 1.952-1.327 2.065-0.668 0.112-1.129 0.275-1.381-1.862 0-0.768-0.019-1.501-0.054-2.2-0.037-0.701-0.199-0.763-0.488-2.268-0.181-0.678-0.452-1.062-0.812-1.151-0.362 0.116-0.777 0.157-1.246 0.744-0.903 1.49-1.148 2.641-2.654 3.453-0.867 0.813-1.95 1.602-3.25 2.37-1.3 0.09-2.104-0.406-2.411-1.489-0.307-1.084 0.208-2.009 2.327-2.776-0.314-0.136 0.129-0.283 0.544-0.44 0.415-0.159 0.858-0.441 1.327-0.847 0.559-0.406 0.415-0.722 0.38-0.948 0.719-0.226-0.236-0.452-0.596-0.677-0.362-0.135-0.687-0.26-0.975-0.372-0.29 0.068-0.561-0.259-0.813-0.44l-0.325-0.271c-0.65-1.67-1.048-3.205-1.191-4.604 0.539-1.399-0.037-2.934 0.325-4.605 0.288-1.263 0.694-1.94 1.218-2.031 0.523 0.729 1.219 0.059 2.086-0.203 0.938-0.218 1.886-1.478 2.843-1.726 0.957 0.148 1.959-0.327 3.007-0.102 0.541-0.361 0.766-0.643 0.677-0.982-0.091-0.338-0.389-0.552-0.894-0.643-0.723 0-0.653 0.012-2.031 0.034-0.632 0.023-1.31-0.034-2.031-0.169l-0.596-0.271c-0.525-0.136-1.499-0.542-2.113-1.219 0.268-0.677-0.415-1.241 0.596-1.693 1.227 0.513 2.654-0.349 4.279-0.643 1.625-0.293 2.6-1.365 2.925-3.216 0.252-1.219 0.677-1.761 1.273-1.625 0.596 0.135 1.056 0.722 1.381 1.76 0.181 0.813 0.415 2.217 0.705 2.133zm0.704 10.867 1.896 0.407c1.369 0.36 1.074 0.497 1.381 1.083 0.306 0.587 0.279 1.242-0.081 1.963-0.434 0.317-0.859 0.498-1.273 0.542 0.322 0.046-0.84 0.136-1.273 0.271-0.362 0.091-0.588 0.226-0.677 0.406-0.091 0.181 0.062 0.452 1.252 0.813-0.503 0.162-0.25 0.502-0.034 0.722 0.217 0.24 0.488-0.587 0.813-0.587 0.577 0.487 1.155-0.203 1.733-0.474 0.577-0.271 1.173-0.654 1.788-1.151 0.65-1.263 0.776-1.958 0.379-3.487 0.331-1.06-1.192-1.523-1.519-1.388l-4.06 7e-3c-0.434-0.413-0.714-0.232-0.3-7e-3 -0.667 0.227-0.495 0.52-0.025 0.88zm-5.363-1.049c-0.614 0.113-1.002 0.034-1.733-0.237-0.578-0.09-1.129-0.068-1.652 0.068-0.524 0.135-1.075 0.294-1.652 0.474-0.687 1.038-0.958 2.234-0.813 3.588 0.144 1.354 0.632 2.438 1.463 3.25 0.83 0.091 1.697 0.113 2.6 0.068 0.902-0.045 1.805-0.226 2.708-0.542 0.18-0.135 0.279-0.281 0.298-0.44 0.018-0.158-0.081-0.281-0.298-0.372-0.433-0.09-0.84-0.113-1.219-0.068s-0.75-0.022-1.11-0.023c-1.012-0.766-1.544-1.433-1.598-1.98-0.054-0.942 0.478-1.608 1.598-1.97 0.325-0.315 0.848-0.417 1.571-0.53 1.595-0.112 1.173-0.44 1.354-0.981-0.398-0.316-0.903-0.417-1.517-0.305zm-0.541-30.604c-0.723 0.338-1.482 0.507-2.275 0.507-0.579-0.044-1.039 0.227-1.256 0.813-0.469 0.587-0.713 1.197-0.857 1.828-0.181 0.452-0.145 0.723 0.108 0.813 0.253 0.091 0.523 0.379 0.813 0.406 3.356 0.271 4.649 1.794 5.389 4.57s0.154 5.496-1.76 8.159c-0.542 0.452-0.994 0.508-1.354 1.024-0.362-1.193-0.578-1.701-0.65-2.378l0.108-4.13c0.036-1.219-0.253-2.167-0.227-2.844-1.254-0.677-2.03-1.038-2.969-1.083-1.011 0.045-1.986 0.169-2.925 0.372-0.939 1.013-1.914 0.463-2.925 0.779-0.975 0.722-1.309 1.512-1.002 2.684 0.307 0.543 0.966 0.769 1.977 0.362 0.975-0.362 1.887-1.184 2.736-1.523 0.848-0.339 1.814-0.395 2.898 0.011 0.722 1e-3 1.164 0.429 1.327 1.106 0.162 0.677-0.136 1.354-0.894 2.031-1.011 0.542-2.041 0.892-3.087 1.05-1.048 0.159-2.077 0.282-3.088 0.372-0.614 0-0.903 0.351-0.867 1.05 0.036 0.7 0.361 1.117 0.975 1.801 0.975 0 1.932-0.44 2.871-0.684 0.939-0.09 1.968-0.271 3.088-0.542 0.722 0.046 1.335 0.328 1.408 0.847 0.217 0.519 0.018 1.117-0.596 2.019-0.407 0.362-1.273 0.712-1.977 1.49-0.704-0.552-1.381-0.496-2.031-0.496-1.012 0.091-1.932 0.395-2.763 0.914-0.516 0.519-1.156 1.547-0.975 3.081-0.144 1.58-0.235 3.104-0.27 4.57-0.037 1.467-0.182 3.081-0.434 4.841-0.216 2.348-0.56 4.594-1.029 6.737-0.47 2.143-0.958 4.435-2.058 6.872-0.47 0.993-0.22 1.681-1.625 2.065-0.615 0.383-1.283 0.53-2.004 0.441-1.012-0.858-0.851-2.066-1.192-3.623 0.217-1.557 0.867-2.788 1.95-3.69 0.397-0.226 0.712-0.542 0.948-0.948 0.234 0.476 0.37-0.857 0.406-1.354 0.614-3.34 1.209-6.443 1.788-9.31 0.577-2.866 1.01-5.969 1.3-9.31 0.143-0.67 0.089-2.742-0.163-3.893-0.253-1.151-0.723-2.448-1.408-3.893-0.362-0.586-0.75-1.072-1.165-1.456-0.415-0.383-0.768-0.823-1.056-1.32-0.506-0.318-0.768-1.805 0.051-2.709-0.18-0.902-0.575-1.782 3e-3 -2.64 0.686-0.18 1.336-0.192 1.95-0.034 0.614 0.159 1.281 0.35 2.004 0.575 0.65-0.315 1.246-0.597 1.788-0.846 0.541 0.346 1.155-0.462 1.841-0.643 0.469-0.18 1.02-0.305 1.652-0.373 0.632-0.067 1.165-0.128 1.598-0.643-1.119-1.308-2.094-1.986-2.925-2.031-0.741-0.044-1.301-0.09-2.87-0.135-0.795-0.18-1.554-0.361-2.275-0.542-0.723-0.18-1.499-0.203-2.33-0.068-0.469 0-1.02-0.406-1.652-1.219 0.106-0.812-1.038-1.511-1.218-2.099 0.216-0.856 0.667-1.421 1.354-1.692 0.685-0.271 1.3-0.203 1.841 0.851 0.506-0.377 0.939-0.196 1.3-0.106 0.361 0.091 0.776 0.18 1.246 0.27 0.939 0.271 2.183 0.271 2.6 0 0.794-0.27 1.661-0.948 2.6-2.031 0.434-1.444 1.084-2.437 1.95-2.979 0.867-0.542 1.715-0.112 2.546 1.286 0.837 0.498 0.451 1.82 0.921 1.321 0.469 0.384 0.902 0.734 1.3 1.049h3.304c0.722 0.136 1.155 1.42 1.3 1.287 0.144 0.722-0.162 1.399-0.921 2.031-0.723 0.316-1.445 0.643-2.166 0.982zm-46.169-443.22c-0.957 0.067-1.598-0.499-1.923-1.998 0-0.677 0.018-1.286 0.054-1.828 0.036-0.541 0.126-1.128 0.271-1.553 0.035-0.793 0.045-1.347 0.027-1.866-0.019-0.518-0.064-1.026-0.135-1.524-0.254-1.579-0.434-3.069-0.542-4.468s-0.307-2.866-0.596-4.401c-0.253-1.309-0.433-2.55-0.542-3.724 0.684-0.517-0.289-2.414-0.541-3.724-0.29-0.253-0.65-0.857-1.084-1.084 0.089-0.225-0.849 0.121-1.245-0.474-0.723-0.496-1.364-0.115-1.923-1.151-0.561-0.27-1.201-0.428-1.923-0.474l-3.034-0.677c-0.722 0.271-1.408 0.633-2.058 1.084s-1.354 0.903-2.112 1.354c-0.362 0.181-0.579 0.485-0.65 1.049-0.073 0.294-0.109 0.735-0.109 1.185v5.146c-0.181 0.768 0.413 1.456-0.514 2.065-0.163 0.61-0.263 1.344-0.298 2.201-0.181 0.541-0.416 0.812-0.704 0.812-0.29 0-0.561-0.225-0.813-0.677-0.289-0.632-0.479-1.625-0.569-2.302s-0.117-1.422-0.081-2.234c-0.036-1.084-0.081-1.576-0.135-3.555-0.055-1.286-0.425-2.448-1.111-3.487-1.228-1.128-2.42-1.579-3.575-1.354-1.156 0.226-2.329 0.474-3.521 0.745h-0.541c-1.192-0.361-2.366-0.226-3.035 0.406-1.642 0.633-1.69 1.851-2.924 3.656-0.253 1.941-0.136 3.781-0.948 5.518-0.379 1.865-0.839 3.623-1.381 5.654-0.289 1.806-0.452 3.521-0.487 5.821-0.037 0.95-0.127 2.688-0.271 4.538 0 0.677-0.118 1.219-0.352 1.625-0.236 0.407-0.642 0.836-1.219 1.287-0.506 0.406-0.678 0.429-1.273 0.068-0.344-0.361-0.514-0.835-0.514-1.422-0.254-2.032-0.281-3.983 0.719-5.857-0.603-1.873-0.268-3.848 1.02-5.349-0.494-2.426-0.205-4.209 0.048-5.925 0.252-1.615 0.631-3.565 2.002-5.552-0.829-1.218-0.738-2.324-0.594-3.317s0.38-2.099 1.344-3.318c-0.423-0.857-0.144-1.354 0.2-1.148 0.343-0.477 0.803-0.499 1.381-0.409 0.686 0.226 1.291 0.35 1.815 0.372 0.523 0.023 1.165-0.056 2.184-0.237 1.399 0.514 2.98-0.18 4.478-0.406 1.498-0.225 3.133-0.02 4.903-1.219 0.577-0.271 0.911-0.654 1.002-1.151 0.089-0.496-0.172-0.902-0.786-1.219-1.553-0.541-3.025-0.834-4.414-0.88-0.653-0.044-2.898 0.023-4.523 0.203-0.434 0.046-0.12 0.102-1.3 0.169-0.434 0.068-0.886 0.283-1.354 0.644-0.398 0.181-0.768 0.282-1.111 0.304-0.344 0.024-0.75-0.123-1.219-0.44-0.469-0.315-0.696-0.597-1.408-0.846 0.322-0.095-0.921-0.62-1.354-1.117-0.615-2.031-0.398-3.171 0.65-3.42 1.047-0.247 2.346-0.101 3.304 0.441 0.758 0.621 1.517 0.391 2.275-0.068 0.758 0.045 1.552 0.203 2.383 0.474 0.578 0.135 1.146 0.135 1.707 0 1.297-0.136 1.164-0.225 1.814-0.271 1.084 0.135 2.086 0.203 3.006 0.203 0.921 0 1.959-0.068 3.115-0.203 1.155-0.18 2.266-0.349 3.331-0.508 1.065-0.157 2.194-0.146 3.386 0.034 1.372 0.135 2.689 0.147 3.954 0.034 1.263-0.112 2.6-0.214 4.008-0.305l2.004-0.677c0.361-0.18 0.713-0.225 1.057-0.135 0.342 0.091 0.694 0.226 1.056 0.406 0.685 0.316 1.083 1.407 1.192 1.76 0.108 0.858-0.182 1.513-0.867 1.964-0.687 0.542-1.319 0.914-1.896 1.117-0.578 0.203-1.21 0.305-1.896 0.305-1.228-0.045-2.329 0.011-3.304 0.169-0.975 0.159-2.077 0.147-3.304-0.034l-4.875 1.084c-0.398 0.226-0.623 0.782-0.677 0.778-0.054 0.294 0.135 0.599 0.569 0.914 1.01 0.181 1.95 0.35 2.924 0.508 0.759 0.159 1.697 0.26 2.709 0.512 0.685-0.072 1.291 0.019 1.814 0.064s1.165 0 1.923-0.136c0.361 0 0.74 0.08 1.138 0.237 0.397 0.159 0.83 0.35 1.696 0.576 0.831 0.361 1.833 0.88 2.7 1.557 0.686 0.677 1.237 1.874 1.562 3.589l0.542 1.625c0.035 2.212 0.162 5.118 0.379 6.398 0.217 2.054 0.577 4.255 0.65 6.602 0.289 1.445 0.515 2.833 0.677 4.164 0.82 1.332 0.225 2.765 0.19 4.299-0.109 1.535-0.642 2.336-1.598 2.404zm-39.688 206.02c0.776 0.7 1.696 1.93 1.382 3.69-0.056 1.065-0.29 1.434-0.325 2.133-0.037 0.7-0.073 1.434-0.109 2.201l0.109 0.677c1.408 1.58 2.536 3.244 3.385 3.453 0.848 0.722 2.067 0.858 3.656 0.406 0.939-0.315 1.877-0.417 2.817-0.305 0.938 0.113 1.896 0.35 2.871 0.711 1.01 0.091 1.967 0.384 2.871 0.88 0.902 0.498 1.859 1.355 2.87 2.969 0.434 0.417 1.389 1.219 0.894 2.008 0.163 0.79 0.298 2.172 0.406 2.471 1.109 1.942 0.542 3.849 0.325 5.722-0.216 1.873-0.686 3.781-1.408 5.721-0.108 0.271-0.28 0.576-0.128 0.914-0.622 0.339-0.829 0.553-1.009 0.643-0.581 1.219-1.961 1.818-3.115 1.795-0.741-0.023-1.76-0.26-3.06-0.414-0.579-0.477-1.111-0.602-1.598-0.67-0.488-0.067-1.057-0.213-1.707-0.44-1.986-1.02-3.801-0.699-5.443 1.422-1.644 2.122-2.664 4.518-3.061 6.839-0.036 2.166-0.027 4.221 0.027 6.161s0.334 4.063 0.84 6.365c0.252 0.992 0.162 1.952 0.026 2.877-0.73 0.925-1.11 1.817-2.03 2.675-0.506 0.225-0.921 0.225-0.76 0-0.811-0.227-1.064-0.655-1.244-1.287-0.145-1.309-0.046-2.483-0.38-3.521-0.108-1.038-0.27-2.166-0.487-3.385l0.542-7.786c0.629-1.084-0.028-2.054-0.19-2.912-0.163-0.857-0.28-1.828-0.352-2.911-0.506-1.264-1.056-2.257-1.652-2.98-0.596-0.487-1.4-1.398-2.411-2.031-0.433-0.496-0.623-1.071-0.568-1.726 0.054-0.654 0.387-1.185 1.002-1.591 0.722-0.019 1.381-0.937 1.977-1.727 0.596-0.789 1.219-1.312 1.869-2.539 1.144-0.992 0.568-1.223 0.874-3.149-0.631-1.105-0.839-2.132-1.091-3.08-0.975-1.128-2.031-1.484-3.169-2.201-1.137-0.338-1.78-0.327-2.89 0.034-1.091 0.497-1.805 0.779-2.472 0.846-0.669 0.068-1.364 0.058-2.086-0.033-0.642 0.045-1.462 0.067-2.004 0.067s-1.192-0.112-1.95-0.338c-0.975-0.451-1.445-1.14-1.408-2.065 0.035-0.925 0.541-1.659 1.516-2.084 1.3-0.388 2.573-0.534 3.819-0.557 1.525-0.022 2.554 0.057 3.927 0.237 1.155 0.316 2.878-0.158 3.575-1.422 1.227-1.263 2.094-2.708 2.6-3.838 0-1.804-0.09-3.26-0.271-4.862-0.181-0.828 0.198-2.968 1.138-4.097 1.416-0.677 2.616-0.665 3.06 0.034zm0.379 25.729c0.452 1.151 1.309 1.84 2.573 2.065 1.119 0.542 2.148 0.858 3.088 0.948 0.938 0.091 1.968 0.407 3.087 0.948 0.686 0.091 1.309 0.169 1.869 0.237s1.182 0.26 1.869 0.576c0.505 0 1.029 0.472 1.571-0.203 0.541-0.136 1.101-0.474 1.679-1.016 1.01-2.259 1.182-5.461 0.514-7.359-0.668-2.887-2.303-4.422-5.281-5.099l-1.246 0.27c-1.228 1.109-2.329 0.588-3.304 0.678s-2.04 0.338-3.196 0.744c-0.686 0.227-1.255 0.633-1.706 1.219-0.452 0.587-0.804 1.287-1.056 2.099-0.758 1.445-0.913 2.742-0.461 3.893zm-19.743-2.742c-0.253 1.264-0.11 2.664-0.488 4.198-0.073 1.48 0 2.156 0.217 2.81 0.217 0.655 0.921 1.163 2.112 1.523 1.264 0.136 2.456 0.215 3.575 0.237 1.119 0.024 2.33 0.034 3.63 0.034 0.866 0.046 1.335 0.396 1.408 1.05 0.072 0.654-0.253 1.32-0.975 1.997l-2.654 1.219c-0.687 0.722-1.346 1.252-1.977 1.591-0.633 0.338-1.31 0.643-2.032 0.914-1.336 1.245-2.528 1.039-3.575 0.542s-1.986-1.387-2.816-3.589c-1.481-2.888-2.122-5.676-1.923-8.362 0.198-1.866 0.767-5.518 1.706-8.497 0.036 0.251 0.126-0.417 0.271-0.576 0.801-0.157 0.306-0.281 0.487-0.372 0.506-0.451 0.957-0.53 1.355 0.609 0.396-0.552 0.721-0.022 0.975 0.745 0.721 1.705 0.956 2.664 0.704 3.927zm-40.271 319.34c-0.542-0.135-1.056-0.247-1.544-0.338-0.487-0.09-0.984-0.112-1.489-0.068-0.795 0-1.436 0.203-1.923 0.61-0.488 0.406-0.714 1.128-0.677 2.166 0.143 1.49 0.108 2.867-0.109 4.13-0.216 1.265-0.199 2.687 0.054 4.266l0.38 1.151c0 1.625 0.062 3.32 0.729 4.57-0.414 1.422-0.261 2.969-0.079 5.34 0.216 0.879 0.433 2.379 0.65 3.801 0.216 1.719 0.325 2.945 0.325 4.57-0.217 1.986-0.886 3.081-2.005 3.284s-1.986-0.666-2.6-2.607c-0.072-0.947-0.144-1.851-0.216-2.708-0.073-0.858-0.308-1.693-0.704-2.505-0.579-0.813-1.219-1.219-1.491-1.219h-2.32c-1.335-0.406-2.392-0.699-3.312-0.88-0.921-0.18-2.014-0.068-3.277 0.339-0.867 0.091-1.689 0.101-2.465 0.033-0.777-0.067-1.58-0.123-2.41-0.169l-2.763 1.151c-0.273 0.046-1.716 0.86-2.546 0.474-0.831 0.271-1.643 0.948-2.437 2.031-0.398 0.813-0.723 1.614-0.975 2.404-0.253 0.789-0.615 1.613-1.084 2.471-0.253 0.451-0.541 0.914-0.641 1.388-0.55 0.474-0.894 0.823-1.254 1.05-1.229 0.135-2.447-0.249-3.657-1.151-1.21-0.904-1.652-2.212-1.219-3.927 0.289-0.813 0.804-1.366 1.436-1.659 0.631-0.294 1.291-0.621 1.977-0.982 2.094-3.089 4.357-7.628 4.388-11.239 0.83-3.611 0.884-7.448 0.909-11.511-0.964-0.586-1.199-1.094-1.451-1.523-0.253-0.429-0.65-0.801-1.192-1.118-0.939 0.091-1.941 0.215-3.006 0.373-1.066 0.159-1.951 0.463-3.277 0.914-1.373 0.595-2.294-0.485-2.763-1.997s0.09-2.607 1.68-3.284l2.329-0.677c1.372-0.407 2.645-0.722 3.818-0.948s2.465-0.496 3.873-0.813l8.667-0.88c0.217 0 0.442-0.09 0.677-0.271 0.235-0.18 0.37-0.451 0.406-0.812-0.758-0.993-1.444-1.49-2.058-1.49h-2.112c-0.65-0.18-1.256-0.361-1.815-0.542-0.146-0.179-1.147-0.293-1.76-0.338-0.507 0.045-0.958 0.181-1.355 0.406 0.449 0.227-0.831 0.384-1.3 0.474l-6.066-0.474c-0.362-0.09-0.642-0.259-0.84-0.508 0.575-0.247-0.334-0.575-0.406-0.981-0.253-0.767-0.344-1.445-0.271-2.032 0.072-0.586 0.505-0.88 1.3-0.88 1.877-0.044 3.683-0.09 5.417-0.135 2.255-0.045 3.575 0.045 5.525 0.27 0.866 0.487 1.733 0 2.6-0.27 0.866-0.271 1.733-0.722 3.05-1.355-0.162 0.252 1e-3 -0.541 0.037-0.812s-0.09-0.518-0.379-0.745c-0.65-0.541-1.21-0.958-1.679-1.252 0.421-0.293-1.012-0.237-1.625 0.169-2.095 0.812-4.198 1.106-6.311 0.88-2.112-0.225-4.252-0.948-6.418-2.167-0.759-0.902-0.625-1.782-0.948-2.64 0.126-0.857 0.731-1.219 1.814-1.084 0.903 0.227 1.751 0.713 2.546 1.163 0.794-0.711 1.679-0.665 2.654-0.621 0.759 0.181 1.49 0.362 2.194 0.542 1.505 0.181 1.453 1.139 2.248 0.203 0.614 0.936 1.209 0.246 1.788 0.034 0.577-0.022 1.191-0.327 1.841-0.158 0.948-1.298 1.291-1.16 1.598-2.178 0.306-0.406 0.623-1.084 0.948-2.031 0.577-0.191 1.146-0.779 1.706-0.081 1.226-0.292 1.128 0.194 1.707 0.961 0.613 1.219 1.11 2.009 1.489 2.37 1.18 0.361 1.074 0.519 2.086 0.474 1.768-0.136 3.475-0.395 5.118-0.779 1.643-0.383 3.403-0.576 5.282-0.576 1.191 0.317 2.624 0.948 2.085 1.896 0.198 0.948-0.181 1.738-1.435 2.37-1.517 0.677-2.925 1.039-4.225 1.083-1.3 0.046-2.691 0.294-4.171 1.591-0.723-0.54-1.13-0.958-2.086-0.68-0.668 0.46-0.814-0.03-1.923 0.24-0.903 0.317-1.3 0.735-1.191 1.253 0.108 0.519 0.541 0.937 1.3 1.847 2.022 0 3.981-0.684 5.877-0.865 1.896-0.18 3.927-0.226 6.094-0.136 1.227 1.001 1.832 1.185 1.814 2.336-0.019 1.925-0.659 1.93-1.923 2.336-1.191-0.09-1.502-0.034-3.142 0.169-1.309 0.204-2.437 0.328-3.629 0.373-1.083-0.271-2.04-0.383-2.87-0.339-0.832 0.046-1.788 0.294-2.871 0.745-0.21 0.316-1.228 1.331-1.192 1.557 0.036 0.723 0.469 1.175 2.092 1.355 0.977 0.18 2.629 0.214 4.164 0.101 1.535-0.112 3.241 0.034 5.866 0.44 0.625 0.046 1.943 0.091 3.54 0.136 0.931 0.045 2.267 0.302 4.09 0.474 0.054 0.135 0.406 0.338 0.642 0.609 0.234 0.271 0.37 0.745 0.406 1.422-0.073 0.993-0.244 1.977-0.515 2.167-0.27 0.451-0.876 1.41-1.814 0.473zm-11.808-1.286c-1.229 0.046-1.411 0.023-3.142-0.068-0.903-0.18-1.733-0.338-2.492-0.474-0.758-0.135-1.589 0.225-2.491 0.136l-4.659 1.339c-0.614-0.684-1.183-0.82-1.706-1.001-0.524-0.18-1.129-0.044-1.221 1.001l-2.04 0.218c-1.353 0.587-1.02 1.662-1.343 1.93 0.271 0.7 1.163 1.117 1.489 1.252h2.546c0.902 0.407 1.634 0.588 2.194 0.542 1.144-0.044 1.291-0.271 2.194-0.677 0.685-0.18 1.65-0.225 1.95-0.135 0.613 0.091 1.3 0.226 2.058 0.406l7.475-0.616c0.289-0.557 0.523-0.727 0.704-0.975 0.783-0.248 0.289-0.553 0.325-0.914 0-1.355-0.614-2.008-1.841-1.964zm2.193 10.156c-0.596-0.713-1.417-1.376-2.464-1.692-0.975 0.091-1.878 0.124-2.709 0.101-0.831-0.022-1.697-0.101-2.6-0.237-1.083 0.865-2.094 0.525-3.033-0.101-0.939-0.158-1.95-0.26-3.033-0.305l-1.138 0.271-0.127 0.135c-1.209 0.768-1.94 1.344-2.608 1.727-0.669 0.384-1.327 1.005-1.977 1.862-0.615 1.039-0.075 1.953-0.759 2.742 0.109 0.79 0.198 2.194 0.271 2.81 0.593 0.993 0.323 2.764-0.081 2.64 0.234 0.768 0.857 1.634 1.869 1.49 0.577-0.09 1.128 0.144 1.652-0.406 0.523-0.18 1.11-0.451 1.76-0.39 0.686-0.17 1.409-0.863 2.167-1.608 0.758-0.744 1.192-1.591 1.786-2.539l-1.949-3.182c-0.181-1.038-0.117-2.02 0.19-2.945 1.089-0.925 0.983-1.568 2.031-1.93 1.011 0.362 1.734 0.903 2.167 1.625 0.433 0.723 0.631 1.716 0.596 2.979-0.145 0.723-0.325 1.445-0.245 2.5-0.514 0.389-0.586 1.134-0.514 1.901 1.011 1.625 1.95 2.505 2.817 2.641 0.867 0.558 1.842 0.226 2.925 0.271 0.902 0.316 1.706 0.361 2.41 0.135 0.705 0.612 1.003-1.016 0.894-2.37 0-0.488 0.027-1.715 0.081-2.437 0.055-0.722 0.208-1.558 0.461-1.911 0.035-1.903-0.244-2.964-0.84-3.777zm-147.93-499.67c-0.47 0.045-1.264-0.361-2.383-1.354-0.154-0.586-0.406-1.151-0.461-1.693-0.054-0.542-0.135-0.903-0.243-1.625v-2.099c0-0.631 0.072-0.679 0.216-2.031-0.036-0.857-0.208-1.771-0.514-2.742-0.307-0.97-0.677-1.952-1.111-2.946-0.939-0.992-1.851-1.31-2.735-1.895-0.885-0.271-1.851-0.565-2.898-1.422-0.145-0.045-0.325 0-0.542 0.135-0.216 0.136-0.415 0.271-0.595 0.406l-5.2 1.287c-0.975 0.091-1.671 0.621-1.321 1.591-1.18 0.971-1.442 1.953-1.55 2.945-0.145 1.49-0.19 3.081-0.136 4.774 0.054 1.692-0.406 3.239-1.381 4.638-1.3-0.226-2.031-1.49-2.194-3.792-0.162-2.077-0.243-4.085-0.243-5.349-0.037-1.398-0.434-2.505-1.192-3.318-0.758-0.812-1.662-1.308-2.708-1.489-0.832-0.18-1.319-0.576-1.463-1.185-0.145-0.609 0.163-1.275 0.921-1.997 0.542-0.407 1.056-0.7 1.544-0.881 0.487-0.18 1.037-0.36 1.652-0.541 0.397-0.271 0.712-0.632 1.38-1.084-0.198-0.153-0.316-0.924-0.784-0.873-0.723-0.955-1.472-1.259-2.248-1.463-0.777-0.203-1.509-0.349-2.194-0.44-0.325 0.046-0.605 0.181-0.84 0.407s-0.551 0.406-0.948 0.541c-0.506 0.136-0.993 0.169-1.066 0.102-0.866-0.068-1.11-0.056-1.913 0.034-1.12 0.379-2.104 0.35-2.952 0.372-0.849 0.023-1.814-0.462-2.898-1.456-1.191-1.444-1.157-2.549-1.191-3.317 0.396-0.767 1.263-1.04 3.014-1.761 0.741 0.362 1.842 0.667 2.89 0.914 1.047 0.249 2.166 0.305 3.358 0.169 2.275-0.586 4.405-0.914 6.392-0.981 2.75-0.068 4.134 0.034 6.446 0.619 1.371-0.54 2.671-0.698 3.9-0.789 1.227-0.089 2.824-0.067 4.062 0.068h2.41c0.777 0 1.634 0.136 2.573 0.721 1.409 0.227 2.094 1.006 2.059 2.021-0.037 1.016-0.795 1.84-2.275 2.472-2.167-0.09-3.875-0.203-5.545-0.339-2.626-0.135-4.36 0.023-6.859 0.474-0.723 0.316-1.093 0.846-1.111 1.591-0.019 0.745 0.352 1.231 1.111 1.681l2.437 0.046c0.83 0.045 1.579 0.192 2.248 0.44 0.668 0.249 2.344 0.531 2.356 0.846 1.625-0.631 3.069-0.834 4.334-0.609 1.263 0.226 2.708 0.926 4.333 2.747 0.901-0.242 0.83 0.221 1.083 0.74 0.252 0.519 0.542 1.073 0.867 1.659 0.685 2.076 1.128 4.108 1.327 6.093 0.684 1.987 0.774 4.063 0.027 6.23-0.361 1.535-0.777 2.393-1.246 2.708zm-38.81-17.74c1.679-0.992 3.637-1.511 5.877-1.557h1.029c0.469-0.044 0.983 0 1.544 0.136 0.559 0.135 0.929 0.587 1.11 1.354-0.145 0.993-0.541 1.636-1.191 1.929-0.65 0.294-1.3 0.44-1.95 0.44-0.356-0.315-2.14-0.101-2.953 0.644-0.812 0.745-1.435 1.907-1.868 3.487-0.47 2.347-0.84 4.559-1.111 6.635 0.116 2.077-0.75 4.289-1.435 6.636-0.362 0.993-0.219 1.512-1.354 1.557-0.542 0.045-0.975-0.474-1.3-1.557-0.325-2.303-0.29-4.48 0.108-6.534 0.397-2.054 0.65-4.254 1.577-6.602-0.675-3.385 0.238-5.574 1.917-6.568zm-1.267 183.06c-0.342 1.064-0.604 1.175-1.289 1.761l-1.896 1.151c0.475 0.226-0.452 0.429-0.488 0.609-0.036 0.181 0.243 0.339 0.488 0.474 0.397 0.181 0.785 0.339 1.164 0.474 0.379 0.765 0.767 0.294 1.165 0.474 0.794 0.316 1.219 0.768 1.273 1.354 0.333 0.587-0.298 1.061-1.056 1.422-0.398 0.181-0.786 0.294-1.165 0.339s-0.804 0.067-1.273 0.067c-0.353 0.046-0.75 0.215-0.84 1.399-0.09-0.597 0.082-0.338 0.515-0.112l1.571 0.677c1.083 0.812 1.588 1.614 1.517 2.403-0.073 0.791-0.705 1.321-1.896 1.592-0.398 0-0.84 0.033-1.12 0.101-0.695 0.068-1.066 0.819-1.318 0.982 0 0.722 0.225 1.32 0.677 1.794 0.811 0.474 1.002 0.757 1.652 0.847 0.469-0.136 0.975-0.134 1.517-0.373 0.542-0.112 1.083-0.259 1.625-0.44 0.577-0.948 1.029-1.918 1.354-2.911 0.883-0.993 0.451-2.008 0.379-3.047 0.324-1.354 0.414-2.685 0.027-3.995 0.09-1.309 0.19-2.685 0.298-4.13 0.181-1.219 0.523-1.805 1.03-1.761 0.505 0.046 1.118 1.293 1.841 1.287 0.18 0.541 0.316 1.876 0.406 1.896 0.09 0.722 0.19 1.399 0.442 2.031-0.252 1.806-0.379 3.532-0.523 5.269-0.145 1.559-0.433 3.285-0.866 5.09-0.217 0.587-0.425 1.163-0.623 1.727-0.199 0.565-0.534 1.049-1.002 1.455-1.265 1.581-2.366 2.292-3.305 2.133-0.939-0.157-2.058-0.372-3.358-0.643-1.048-0.361-2.041-0.542-2.979-0.542-0.94 0-1.932-0.09-2.979 0.18-1.192 0.45-2.339-0.27-2.675-0.044-1.867 0.226-3.013 0.452-4.204 0.677-1.337 0-2.106 0.034-3.765 0.101-1.174 0.068-2.429 0.261-3.765 0.576-0.578-0.044-0.876-0.044-1.543 0-0.452 0.045-0.967 0.294-1.283 0.745-1.019 0.226-1.688 0.429-2.04 0.609-0.803 0.181-1.453 0.565-1.5 1.151-1.398 0.181-2.075 0.057-2.32-0.372-1.019-0.429-1.461-0.982-1.714-1.659-1.372-3.521-2.176-6.781-2.41-9.784 0.404-3.001-0.154-6.285 0.244-9.851 0.613-2.032 1.389-2.765 2.329-2.201 0.938 0.682 1.517 1.75 1.733 3.852v0.109c-0.325 1.931-0.479 3.205-0.46 4.74 0.018 1.535 0.279 3.182 0.785 5.761 0-0.186 0.333 0.423 0.271 1.009 0.18 0.588 0.542 1.219 1.083 1.896 0.614 1.045 1.273 1.045 1.977 0 0.705-0.271 1.399-0.496 2.086-0.677 0.288-0.271 0.415-0.484 0.379-0.643-0.036-0.158-0.162-0.349-0.379-0.576-0.362-0.27-0.677-0.372-0.948-0.304-0.271 0.067-0.569 0.169-0.894 0.304 0.278 0.181-0.858 0.181-1.273 0-0.415-0.09-0.767-0.428-1.056-1.015-0.289-0.677-0.325-1.185 0.567-1.524-0.459 0.04-0.062-0.597 0.516-0.778l2.221-0.61c0.803-0.18 0.813-0.552 0.813-1.117 0-0.564-0.01-0.914-0.813-1.049l-1.987-0.271c-1.173-0.18-1.57-0.564-1.642-1.151-0.073-0.586 0.892-1.128 0.867-1.625 0.469-0.18 0.911-0.383 1.795-0.61-0.054-0.225 0.426-0.383 0.967-0.474 0.397-0.315 0.623-0.275 0.677-1.015 0.054-0.361 0.126-0.2-0.568-0.813-0.434-0.135-0.832-0.315-1.192-0.541 0.016-0.226-0.741-0.407-1.138-0.542-0.506-0.451-0.794-0.88-0.866-1.287-0.073 0.413 0.108-0.856 0.541-1.354 0.831-0.541 1.652-0.981 2.465-1.32 0.812-0.339 1.544-1.139 2.194-2.404 0.252 0.171 0.559-0.53 0.921-0.507 0.36 0.023 0.685 0.327 0.975 0.914 0.325 0.587 0.667 1.005 1.029 1.954 0.36-0.453 0.776-0.329 1.246-0.329 0.468-0.045 0.929 0.248 1.381 0.88 0.451 0.632 0.623 1.264 0.514 1.896-0.216 0.677-0.56 1.106-1.029 1.286-0.47 0.181-0.939 0.406-1.408 0.677-0.65 0.362-0.94 0.779-0.867 1.253 0.072 0.474 0.397 0.734 0.975 0.778 0.469-0.089 0.975-0.089 1.517 0 0.542 0.091 0.993 0.43 1.354 1.016 0.252 0.948 0.027 1.738-0.677 2.37s-1.4 0.993-2.085 1.083c0.034-0.044-0.669 0.046-0.813 0.271-0.145 0.226-0.019 0.587 0.487 1.479 0.253 0.46 0.587-0.328 1.02-0.328 0.181 0 0.515 0.023 1.02 0.068 0.723 0.045 1.292 0.395 1.563 1.049 0.27 0.655-0.01 1.276-0.84 2.681l-2.979 0.4c-0.506 0.135-0.804 0.44-0.804 0.914-0.18 0.474 0.046 1.256 0.587 1.05 0.65 0.18 2.273 0.236 2.275 0.169 0.867-0.068 1.589-0.485 2.167-1.253 0.36-0.57 0.596-2.211 0.704-3.25 0.108-1.038 0.415-2.166 0.921-3.385l-0.867-1.016c-0.506-1.354-0.777-2.73-0.137-4.13-0.37-1.309-0.19-2.776-0.621-4.13 0.252-1.534 0.821-2.059 1.706-2.167 0.885 0.091 1.562 0.813 2.031 2.167 0.036 0.821 0.018 1.388-0.054 1.997-0.073 0.609-0.127 1.32-0.162 2.133 0.072 0.812 0.017 2.161-0.163 2.505-0.181 0.858-0.56 1.738-1.137 2.641 1.37 1.039 1.11 1.997 1.164 2.877 0.054 0.881 0.956 1.908 1.436 3.081 0.758 0.587 1.697 0.836 2.816 0.745 1.119-0.09 1.878-0.813 2.644-1.348-0.585-1.134-0.784-1.303-0.964-1.327-0.182-0.022 0.214-0.033-0.596-0.033-1.3 0.406-2.176 0.011-2.627-1.185-0.452-1.196-0.027-2.088 1.273-2.675 0.325-0.135 0.65-0.259 0.975-0.372 0.325-0.112 0.667 0.272 1.029-0.44 0.288-0.226 0.451-0.429 0.487-0.61 0.243 0.612-0.127-0.271-0.487-0.271h-1.625c-1.481-0.45-2.285-1.207-2.411-2.268-0.127-1.06 1.226-1.429 2.194-1.997 0.532 0.045 0.713 0.113 1.056 0.203 0.856 0.325 0.677 0.545 1.002 0.365 0.694-0.387 0.506-0.568 0.542-0.839s-0.108-0.361-0.433-0.542c-0.542 0-1.021-0.078-1.436-0.237-0.415-0.157-0.858-0.416-0.769-0.778-1.244-0.767-1.497-1.5-1.316-2.201 0.18-0.303 1.496-1.071 1.571-1.117 0.577 0.046 1.965-0.056 1.896-0.305 0.685 0.059 1.227-0.868 1.625-1.862 0.288-0.45 0.595-0.643 0.92-0.575s0.65 0.35 0.975 0.846c0.397 0.768 1.379 1.231 1.138 2.09 0.36-0.543 0.83-0.419 1.408-0.329 0.65 0.091 1.056 0.429 1.723 1.015zm-3.294 27.774c-0.65-0.081-1.318-0.058-2.004 0.67-0.552-1.18-2.302-1.36-3.331-1.36s-2.122 0.045-3.277 0.135c-1.915-0.225-3.711-0.225-5.39 0-1.679 0.226-3.493 0.768-5.443 1.625-0.47 0.135-0.931 0.226-1.382 0.271-0.452 0.045-0.948 0.068-1.489 0.068-0.506-0.09-1.048-0.226-1.625-0.407-0.578 0.378-1.084-0.338-1.517-0.474-0.253-0.315-0.325-0.834-0.217-1.557 0.109-0.721 0.343-1.309 0.705-1.76 1.083 0.449 2.184-0.61 3.304-0.745 1.119-0.136 2.221-0.158 3.304-0.068 1.263-0.044 2.492-0.146 3.683-0.305 1.192-0.157 2.663 0.367 3.738-0.507 0.505-0.045 0.965-0.034 1.381 0.033 0.415 0.068 0.875 0.012 2.164-0.169l0.084-0.135c1.552 0.091 3.024 0.135 4.414 0.135s2.88 0.046 4.469 0.136c0.867 0.406 1.426 0.971 1.679 1.692 0.253 0.723-0.162 1.4-1.245 2.032-0.687 0.18-1.355 0.338-2.005 0.69zm-31.823 20.401c0.523-0.331 1.328-0.847 2.411-0.711 0.36 0.044 0.704 0.191 1.029 0.44 0.325 0.247 0.65 0.372 0.975 0.372 0.505-0.226 0.975-0.429 1.408-0.609 0.434-0.181 0.921-0.249 1.463-0.203 1.119-0.181 2.167-0.464 3.142-0.1 0.975-1.131 2.021-1.48 3.249-1.49 0.506-0.802 0.767-1.412 0.678-2.134-0.091-0.722-0.461-1.106-1.111-0.656-0.723-0.45-1.336 0-1.841-0.36-0.507 0.136-1.102 0.406-1.266 1.11-1.75 0.019-2.77 0.177-3.582 0.177-0.813 0-1.834-0.722-3.061-2.167-0.597-1.896-1.021-3.961-0.352-6.195 0.668-2.235 1.977-3.848 3.927-4.841 0.686 0.045 1.273 0.27 1.761 0.677 0.487 0.406 1.146 0.361 1.977-0.136l2.221-1.083c1.408-0.271 2.753-0.485 4.035 0.158 1.281-0.959 2.663-1.174 4.144-1.445 0.685-0.09 1.308-0.101 1.868-0.033 1.262 0.067 1.183 0.124 1.869 0.169 0.722 0.045 1.354 0.135 1.896 0.271 0.542 0.135 1.209 0.429 2.004 0.88 0.577 0.497 0.848 1.027 0.813 1.591 0.53 0.565-0.379 0.96-0.39 1.185-1.109 0-1.533 0.057-1.912 0.169-0.38 0.113-0.498 0.237-1.165 0.823-0.686 0.45-1.319 0.23-1.896-0.518-0.578-0.09-1.174-0.158-1.787-0.203-0.542 0.091-1.057 0.203-1.544 0.338-0.488 0.136-0.967 0.159-1.435 0.068-1.012-0.044-1.591 0.034-2.763 0.237-0.831 0.203-1.716 0.169-2.654-0.102-0.074 0-0.984 0.034-1.436 0.102s-0.93 0.079-1.435 0.034c7e-3 -0.18-1.21-0.09-1.787 0.271-0.579 1.153-1.157 0.88-1.734 1.557-0.506 1.236-0.641 1.456-0.406 2.065 0.234 0.609 0.731 0.914 1.49 0.914 0.975 0.117 1.913-0.395 3.374-0.508 0.344-0.112 1.319-0.123 2.367-0.034 0.469-0.044 0.902-0.225 1.3-0.541 0.397-0.315 0.848-0.542 1.354-0.677 1.047-0.045 1.914 0.011 2.6 0.169 0.686 0.159 1.751 0.057 3.196-0.305l6.067 0.407c0.938 0.666 1.814 0.429 2.627 0.473 0.812 0.046 1.706-0.067 2.681-0.338 0.614-0.271 1.011-0.643 1.588-1.117-0.216-0.474-0.469-0.982-1.154-1.524-0.362 0.162-0.741-0.484-1.138-0.778-0.398-0.293-0.758-0.666-0.858-1.118-0.659-0.586-0.84-1.093-0.767-1.523 0.072-0.428 0.433-0.665 1.083-0.711l2.834 0.271c0.109 0.045 0.74 0.203 1.121 0.474 0.739 0.271 0.884 0.812 1.137 1.625 0.722 2.372 1.011 3.013 0.867 4.299-0.145 2.133-0.723 2.743-1.734 4.368-0.506 0.316-0.966 0.463-1.381 0.44s-0.876-0.079-1.12-0.17c-0.948-0.179-1.57-0.237-2.13-0.169s-1.183 0.169-1.869 0.305c-1.083 0.226-1.499 0.812-0.831 1.76-0.162 0.948 0.434 1.581 1.373 1.896 0.902-0.135 1.724 0.443 2.465-0.102 1.072 0.068 1.579 0.215 2.518 0.441 0.759 0 1.525 0.067 2.302 0.203 0.777 0.135 1.58 0.474 2.411 1.015 0.938 0.677 1.318 1.456 1.137 2.336-0.181 0.97-0.74 1.433-1.679 1.659-0.65 0-1.237-0.011-1.76-0.034-0.524-0.023-1.075-0.101-1.652-0.237-0.903-0.045-1.752-0.067-2.285-0.067-1.056 0-1.868-0.159-2.699-0.474l-9.75 0.27c-1.336 0.226-2.582 0.451-3.737 0.678-1.156 0.225-2.402 0.315-3.738 0.27-1.553-0.226-3.042-0.372-4.468-0.44-1.427-0.067-2.935 0.079-4.523 0.44-0.903 0.722-1.77 1.275-2.6 1.659-0.831 0.383-1.005 0.666-2.6 0.847-0.94 0-1.49-0.305-1.652-0.914-0.163-0.61-0.154-1.366 0.027-2.269 0.072-1.309 0.37-2.268 0.893-2.877zm18.119-2.065c1.192 0.406 2.311 1.364 3.359 0.338 1.046-0.181 2.202-0.294 3.466-0.338 0.397-0.046 0.767-0.204 1.111-0.474 0.342-0.271 0.496-0.7 0.46-1.287-0.433-1.579-1.002-2.403-1.706-2.471s-1.58-0.034-2.627 0.101c-0.217 0.046-0.443 0-0.677-0.135-0.236-0.135-0.479-0.18-0.732-0.135-0.614 0.135-1.273 0.406-1.977 0.812s-0.679 1.313-1.435 1.828c-0.145 0.542-0.208 0.948-0.19 1.525 0.018-0.035 0.334 0.146 0.948 0.236zm46.648-221.21c-0.479 0.023-0.804 0.057-0.75 0.102-1.137 0.045-1.814 0.067-2.32 0.067-0.758 0-1.435-0.157-2.157 0.075-1.264-1.812-1.49-2.771-0.677-3.426 0.812-0.654 1.688-0.514 2.627-1.388 0.65-0.18 1.308-0.203 1.977-0.068 0.668 0.136 1.381 0.384 2.59 0.745 0.38 0.452 0.75 1.061 0.66 1.828 0.54 1.389-0.497 1.354-1.219 2.309-0.325-0.368-0.632-0.266-0.731-0.244zm4.74 5.248c-0.109 0.947-0.596 1.738-1.463 2.369-1.228 0.587-2.266 0.677-3.114 0.271-0.849-0.406-1.888-0.789-3.115-1.151-0.325 0.487-0.642 0.097-0.948-0.169-0.01-0.068-0.641-0.192-1.002-0.373-0.867-0.677-0.418-1.444-1.056-2.302 0.162-0.857 0.695-1.376 1.598-1.557l0.758-0.135h0.542c1.01-0.136 2.066-0.158 3.168-0.068 1.102 0.091 2.23 0.429 3.386 1.016 0.938 0.451 1.876 1.151 1.246 2.099zm-15.492 5.822c1.3-0.179 2.726-0.315 4.279-0.136 1.363-0.36 2.473-0.348 3.629 0.34 1.156-0.463 2.384-0.383 4.134-0.339 1.03 0.633 1.734 1.547 1.662 3.129 0.728 0.81-0.812 2.21-2.221 2.085-1.336-0.226-2.555-0.395-3.656 0.185-1.102-0.805-2.185-0.863-3.548-0.863l-0.866 0.136c-1.048 0.452-1.933 0.722-2.655 0.812-0.722 0.091-1.643 0-2.762-0.27 0.106-0.18-0.795-0.361-1.192-0.542-0.398-0.18-0.812-0.225-1.102-0.136h-0.469c-1.264 0.633-2.464 1.118-2.801 1.456-1.938 0.339-3.103 0.464-4.294 0.373-1.192-0.677-1.861-1.49-2.005-2.438s0.343-1.76 1.949-2.437c0.958-0.361 2.331-0.598 3.631 9e-3 1.3-0.832 2.654-0.686 4.062-0.28 1.517-0.542 2.925-0.903 4.225-1.084zm-6.121-10.088c-1.12 0.181-2.112 0.282-2.979 0.305s-1.824-0.034-2.871-0.17l0.053-0.135c-1.389-1.354-1.434-2.404-0.622-3.149 0.813-0.744 1.742-0.599 2.79-1.049 0.794-0.361 1.525-0.383 2.194-0.203 0.668 0.181 1.362 0.587 2.085 1.219 0.577 0.768 0.786 1.421 0.623 1.963-0.162 0.542-0.38 1.641-1.273 1.219zm0.65 6.906c-0.831 0.497-1.499 0.88-2.004 1.151-0.506 0.271-1.156 0.43-1.653 0.474-0.911 0.046-1.489 0.034-2.03-0.034-0.542-0.067-1.102-0.01-1.679 0.305-1.265-0.315-1.851-0.48-1.761-2.438 0.09-1.354 0.749-2.278 1.977-2.776 0.794 0.334 1.49 0.444 2.086 0.034 0.595-0.067 1.362-0.304 2.302-0.711 0.36 0.541 0.722 0.081 1.083-0.135 0.361 0.091 1.172 0.181 1.138 0.271 0.83 0.316 1.327 0.88 1.489 2.475 1.045 0.03-0.154 0.753-0.948 1.384zm-7.719 23.596c0.523-1.421 1.67-2.21 3.44-4.096 0.83-0.424 1.146-1.388 0.948-1.997-0.199-0.61-0.659-0.959-1.381-1.05-0.903 0.452-1.743 0.723-2.519 0.813-0.777 0.091-1.634 0.406-2.573 0.948-0.578 0.091-0.373 0.147-1.571 0.169-0.47 0.023-0.939 0.169-1.408 1.133-1.228-0.377-1.987-1.008-2.275-2.589-0.29-1.579 0.261-2.708 1.731-3.385-0.269-0.226 2e-3 -0.44 0.219-0.643 1.081-0.204 0.542-0.441 0.975-0.711 0.433-0.09 0.902-0.112 1.408-0.068 0.505 0.045 1.029 0.113 1.571 0.203 0.975 0.713 1.977 0.621 3.006 1.273 1.029-0.877 2.086-1.25 3.961-1.882-0.287-0.045 0.3-0.045 0.671 0 0.468 0.162 0.992 0.162 1.939 0l5.698-1.354c0.614-0.136 1.173-0.17 1.679-0.102 0.505 0.068 1.084 0.237 1.734 0.688 1.95 0.136 3.791 0.17 5.939-0.079 1.319-0.247 3.161-0.146 5.111 0.305 0.83 0.181 1.642 0.294 3.229 0.339 2e-3 0.045 0.851 0.365 1.754 0.609 0.83 0.316 2.146 0.79 1.869 1.422 0.414 0.632 0.496 1.513 0.243 2.64-0.397 0.407-0.948 0.689-1.526 0.847-0.83 0.158-1.417 0.237-1.886 0.237-1.048-0.136-2.058-0.214-3.033-0.237-0.975-0.022-2.005-0.034-3.088-0.034-0.289 0-0.46 0.079-0.515 0.237-0.054 0.159 9e-3 0.44 0.19 0.846 0.867 0.768 1.697 1.625 2.492 2.573 1.64 0.948 1.625 1.873 2.491 2.776 0.614 0.903 0.966 1.704 1.057 3.169 0.089-0.066-0.154 0.781-0.732 1.774-0.578 1.126-1.345 0.564-2.302 0.338s-1.652-0.79-2.085-1.692c-0.506-0.858-0.967-1.412-1.381-1.659-0.416-0.249-0.931-0.711-1.544-1.388-0.433-0.452-0.687-0.836-0.344-0.503-0.487-0.964 0-1.302-0.198-1.16 0.252-1.135 0.325-1.79 0.217-1.63-0.108-1.514-0.253-2.1-0.019-2.598l-3.177-2.573c-1.373-0.379-2.582-0.924-3.629-0.609-1.048 0.316-2.203 0.609-3.467 1.15-0.866 0.047-1.499 0.407-1.896 0.814-0.397 0.406-0.758 1.061-1.083 2.656-0.398-0.106-0.785 1.16-0.778 0.594-0.766 0.27-1.191 0.519-1.659 0.744-0.47 0.136-0.913 0.486-1.328 1.05-0.163 0.565-0.622 1.161-0.622 1.794 0.549 0.451 0.595 0.846 1.137 1.185s1.011 0.53 1.408 0.575c1.084-0.135 2.121-0.169 3.115-0.101 0.993 0.068 2.049 0.101 3.169 0.101 1.155-0.18 2.238-0.384 3.25-0.609 1.01-0.226 2.4-0.429 3.358-0.609 0.975 0.044 1.589 0.62 1.842 1.726 0.252 1.106-0.199 2.042-1.354 3.08-1.626 0.903-3.341 1.547-4.821 1.66-1.481 0.76-3.124 0.259-4.929 0.44-1.59-0.046-3.107-0.249-4.55-0.609-1.346-0.362-2.98-0.836-4.605-1.422-0.144 0-0.334-0.024-0.568-0.068 0.097-0.045-0.425-0.135-0.569-1e-3 -1.481-2.301-1.959-4.028-1.436-5.45zm263.2-96.405c0.505 0.045 1.064 0.203 1.679 0.474 1.01 0.497 1.29 1.891 1.273 1.997-0.019 0.836-0.461 1.434-0.463 1.794-2.093 0.677-3.122 0.948-3.16 0.813-1.623-0.136-2.579-0.18-3.663-0.136-0.758-0.09-1.183-0.597-1.273-1.523-0.09-0.925 0.306-1.703 0.732-2.336l3.304-0.88c0.541-0.18 1.064-0.248 1.571-0.203zm-1.896-7.651c1.119-0.451 2.329-0.463 3.629-0.034s2.076 1.546 2.329 3.351c-1.048 1.535-2.158 2.224-3.331 2.065-0.922 0.014-2.411-0.484-3.711-0.981-0.794-0.948-1.02-1.805-0.677-2.573 0.343-0.767 0.93-1.377 1.761-1.828zm19.608 4.536c-0.65 0.135-1.282 0.193-1.896 0.169-0.614-0.022-0.877-0.259-1.896-0.711-1.047-1.218-1.454-2.109-1.218-2.674 0.234-0.564 1.487-1.004 1.977-1.32l0.271-0.136c0.685-0.09 1.344-0.112 1.977-0.068 0.892 0.046 1.327 0.159 2.085 0.339 1.517 0.858 1.986 1.76 1.408 2.708s-1.481 1.513-2.708 1.693zm3.71 4.198c0.307 0.406 0.424 1.083 0.353 2.031 0.394 0.551-0.596 0.824-1.246 1.117-0.65 0.295-1.156 0.441-1.517 0.441l-2.329-0.61c-0.94 0-1.959 0.283-2.224-1.286-1.939-0.857-2.272-1.851-1.02-2.979-0.35-0.271-0.015-0.407 1.02-0.407h3e-3c0.975 0.091 1.877 0.545 2.708 0.339 0.831 0.135 1.734 0.248 2.709 0.338 1.37 0.271 1.236 0.61 1.543 1.016zm-17.495 28.065c-0.968 0.203-2.772 0.711-4.252 1.524-0.47 0.135-0.867 0.191-1.192 0.169-0.325-0.023-0.704-0.012-1.138 0.034-0.541 0.09-1.092 0.078-1.652-0.034-0.56-0.113-0.624-0.396-1.652-0.847-1.264-2.166-1.905-3.949-1.923-6.669-0.018-2.279 0.28-4.502 0.894-6.669 0.072-0.677 0.117-1.275 0.135-1.794s0.154-1.072 0.632-1.659c0.244-1.219 1.02-1.715 1.373-1.49 0.595 0.227 1.074 1.462 1.957 2.031-0.45 0.452-0.405 0.926-0.387 1.422 0.018 0.498-0.027 1.039 0.387 1.625l-1.118 2.641c-0.073 0.768-0.054 1.501 0.054 2.893 0.109 8e-3 0.198 0.786 0.271 1.643 0.072 1.487 0.325 1.128 0.759 1.355 0.433 0.225 0.92 0.36 2.254 0.406 0.58 0.361 1.871 0.293 3.081-0.203 2.019-0.498 2.536-1.061 3.981-1.693 0.434-0.361 0.632-0.835 0.596-1.422-0.036-0.586-0.271-1.06-0.704-1.422-1.12-0.902-2.031-1.308-2.574-1.219-0.866 0.091-1.724 0.114-2.734 0.068-0.47-0.09-0.759-0.293-0.867-0.609-0.108-0.315 0.035-0.699 0.541-1.151 0.759-0.722 1.598-1.185 2.411-1.388 0.812-0.203 1.706-0.53 2.681-0.982 0.505-0.225 0.786-0.518 1.308-0.88-0.414-0.361-0.549-0.813-0.874-1.354-0.254-0.361-0.542-0.644-0.867-0.199-0.325-0.851-0.65-0.975-0.975-1.02-0.94-0.406-1.194 0.2-2.411 0.2-0.668 0-1.489-0.651-2.464-0.336-0.309 0.046-1.481-0.259-1.059-0.914-1.144-0.653-0.91-1.41-0.079-2.268 1.011-0.948 1.85-1.534 2.519-1.76 0.668-0.226 1.562-0.248 2.681-0.068 0.469-0.044 0.894-0.18 1.273-0.406s1.406-0.361 1.273-0.406c0.83-0.226 1.634-0.271 2.411-0.136 0.776 0.136 1.633 0.316 2.573 0.542 0.83 0.432 1.615 0.542 2.356 0.034 0.739 0.113 1.544 0.328 2.41 0.643l4.171 3.318c2.012 1.445 2.492 2.799 2.708 4.062 0.217 1.264 0.325 2.776 0.325 4.537 0.289 1.58 0.451 3.968 0.488 5.247 0.161 1.918-0.542 3.69-1.733 5.315-1.076 0.632-2.538 0.88-3.928 1.186-1.39-0.577-2.735-0.78-4.035-1.051-1.12-0.632-2.058-0.959-2.817-0.981-0.758-0.024-1.697 0.034-2.816 0.169-1.481-0.226-2.898-0.237-4.252-0.034zm5.362-15.336c0.126 0.633 0.604 1.174 1.436 1.625 1.424 0.271 1.687 0.474 2.464 0.61 0.776 0.135 1.616 0.473 2.519 1.015 0.938 0.677 1.308 1.422 1.11 2.235 0.611 0.812-0.822 1.174-1.868 1.083-1.157-0.406-2.041-0.496-2.655-0.271-0.614 0.226-1.499 0.836-2.654 1.828-0.253 0.406-0.334 0.757-0.244 1.05 0.09 0.294 0.316 1.098 0.678 0.981 1.443 0.813 2.906 1.219 4.387 1.219 1.48 0 3.033 0.09 4.658 0.271 0.217-0.091 0.397-0.249 0.542-0.474 0.144-0.226 0.217-0.474 0.217-0.745v-0.203c0.216-1.805 0.298-2.881 0.243-5.01-0.054-1.534 7e-3 -3.183-1.435-4.943-0.325-0.586-0.632-1.05-0.921-1.388-0.289-0.339-0.65-0.53-1.083-0.576-0.578-0.36-0.364-0.665-1.49-0.914-0.415-0.247-0.912-0.349-1.489-0.304-0.578 0.045-0.805 0.113-1.679 0.203-0.542 0.091-1.084 0.338-1.625 0.745-0.471 0.677-1.238 1.332-1.111 1.963zm137.8 265.52c-0.217 0.429-0.596 0.71-1.137 0.846-0.687 0.091-0.671 0.113-1.978 0.068-0.632-0.045-1.272-0.023-1.922 0.067l-3.413 3.453c-0.758 0.588-1.354 0.565-1.787-0.067-0.434-0.632-0.47-1.399-0.109-2.302 1.047-1.715 2.158-3.329 3.331-4.841s2.248-3.126 3.223-4.842c0.361-0.812 0.705-1.342 1.03-1.591 0.325-0.247 0.793-0.349 1.408-0.304l0.758-0.136c0.505 0.227 0.786 0.633 0.84 1.219 0.054 0.587-0.01 1.151-0.19 2.017-0.47 0.759-0.731 1.605-0.785 2.215-0.054 0.609 0.171 2.185 0.677 2.674 0.252 0.587 0.271 1.095 0.054 1.524zm-15.437 24.679c0.396 8e-3 1.379-0.756 1.462-1.049 0.577-0.294 1.083-0.44 1.517-0.44 0.866 0.271 1.706 0.737 2.518-0.677 0.813-0.722 1.67-1.625 2.573-2.709 0.506-1.805 0.705-3.238 0.596-4.299-0.108-1.06-0.596-2.494-1.462-4.3-0.217-0.45-0.371-0.438-0.461-1.422-0.09 0.044 0.027-0.902 0.352-1.218 0.397-0.226 0.885-0.192 1.463 0.101 0.577 0.294 1.047 0.824 2.191 1.861-0.169 0.814 0.363 1.48 0.815 1.98 0.451-4e-3 1.165-0.127 2.14-0.625 1.695-1.354 1.85-2.843 1.868-4.468s0.136-3.205 0.767-4.74l-0.306-0.271c0.108-0.361 0.244-0.518 0.406-0.474 0.163 0.046 0.334 0.203 1.19 0.474-0.423 0.994-0.215 1.942-0.052 3.024 0.162 0.723 0.802 1.694 0.568 2.731 0.144 1.039 0.144 1.998 0 2.878s-0.433 1.862-0.866 2.945c-0.506 2.366-1.49 4.176-2.952 5.756-1.463 2.39-3.061 3.182-4.794 4.807-0.867 0.586-1.698 1.083-2.492 1.489-0.795 0.407-1.625 0.971-2.491 1.693-0.687 0.813-1.256 1.354-1.707 1.625-0.452 0.271-1.056 0.474-1.814 0.61-0.578-0.181-1.002-0.464-1.273-0.847-0.271-0.384-0.406-0.937-0.406-1.659 0.035-0.497 0.099-0.971 0.189-1.422s0.244-0.903 0.461-1.354zm21.341-26.338c-0.541-0.496-0.822-0.134-0.839-1.558-0.019-0.406 0.225-1.083 0.731-1.625 1.046-0.406 1.254-0.812 1.814-1.218 0.56-0.407 1.111-1.06 1.653-1.964l0.65-0.406c0.252-0.136 0.514-0.169 0.785-0.102 0.271 0.068 0.55 0.147 1.704 0.237-0.251-0.135 0.309-0.191 0.815-0.169 0.505 0.023 1.101 0.125 1.787 0.305l0.65 0.586c2.094 2.303 3.386 4.752 4.638 7.166-0.277 2.416-0.359 5.045-1.009 7.888-0.325 0.587-0.695 1.163-1.11 1.727-0.416 0.565-0.822 1.185-1.219 1.862-0.795 0.858-1.382 1.343-2.112 1.456-0.615 0.113-1.3 0.033-2.059 0.321-0.866-0.965-1.508-1.043-1.923-0.795-0.118 0.905-0.984 0.846-1.706 1.794-0.216 0.587-0.361 1.163-0.433 1.726-0.073 0.565-0.054 1.141 0.054 2.375 0.794 1.925 1.869 3.753 3.223 4.836 1.354 1.084 3.006 1.761 4.956 2.032 0.867 0.225 1.724 0.169 3.338-0.17 0.083 0.382 0.959-1.095 1.862-2.268 0.144-0.18 0.388-0.305 0.461-0.372 0.162-0.068 0.352-0.079 0.568-0.034l0.65 0.135c1.084 1.651 1.859 2.313 2.039 3.42 0.18 1.105-0.92 2.312-2.039 3.622-0.758 0.361-1.489 0.654-2.193 0.88-0.705 0.469-1.454 0.564-2.248 1.016-0.831 0.135-1.598 0.124-2.302-0.034-0.705-0.159-1.472-0.282-2.302-0.372-1.048-0.633-2.032-1.231-2.953-1.795-0.92-0.106-1.814-1.146-2.681-3.013-0.361-0.812-0.831-0.703-1.408-2.099-0.578-0.587-1.156-1.173-1.733-1.76-0.29-0.857-0.443-1.114-0.461-2.471 0.8-0.79 0.53-1.659 0.18-2.607-0.369-1.715-0.334-3.295-0.153-4.74 0.18-1.444 0.596-3.047 1.246-4.807 0.289-0.722 1.217-0.649 1.002-0.429 0.379 0.24 0.767-0.293 1.165 0.293 0.36 0.678 0.685 1.118 0.975 1.321 0.288 0.203 0.704 0.26 1.246 0.169 0.468-0.135 0.92-0.203 1.354-0.203 0.433 0 1.145-0.022 1.408-0.068 1.119-1.308 1.742-2.64 1.869-3.995 0.126-1.354 0.244-2.776 0.352-4.265-0.181-0.722-0.425-1.41-0.524-2.065-0.515-0.654-0.849-1.343-1.02-2.065-0.804-0.857-1.427-1.162-2.058-0.914-0.632 0.248-1.273 0.778-1.923 1.591-0.687 0.858-1.066 1.659-0.319 2.403-0.72 0.745-1.018 1.547-1.198 2.404-0.361 0.948-0.795 1.4-1.3 1.354-0.506-0.044-0.777-0.542-0.812-1.489 0.072-0.678 0.062-1.241-0.027-1.693-0.091-0.298-0.461-0.903-1.111-1.354z"/>
  </g>
 </g>
</svg>
