<svg width="302" height="150" version="1.1" viewBox="0 0 302 150" xmlns="http://www.w3.org/2000/svg">
	<g fill="#0f72c3" fill-rule="evenodd" stroke-width="1.0066">
		<path d="m0 0v150h150v-150zm73.557 1.3496h2.9434v10.15h-2.9434zm0 15.238h2.9434v10.15h-2.9434zm-13.09 18.412h24.432l0.84375 4.207h37.91v11.777h-21.482v-3.7852h-54.34v3.7852h-21.482v-11.777h34.963zm13.09 14.207h2.9434v3.9746h-2.9434zm-47.209 5.9824h97.305v10.518l-24.854 5.8887v3.7852h24.854v7.9922h-24.854v24.396c0.5617 5.3279-1.9656 7.7112-7.582 7.1504h-48.441v-7.1504h29.066c2.5274 0.56085 3.509-0.70063 2.9473-3.7852v-20.611h-48.441v-7.9922h48.441v-7.9922l8.8457-4.207h-57.287zm-24.998 18.311h10.152v2.9434h-10.152zm15.24 0h7.75c-1.16e-4 0.98417 0 1.9609 0 2.9434h-7.75zm109.07 0h7.752v2.9434h-7.752zm12.84 0.056641h10.15v2.9434h-10.15zm-64.943 49.703h2.9434v10.15h-2.9434zm-0.056641 15.238h2.9434v10.152h-2.9434z"/>
		<path d="m152 0v150h150v-150zm73.557 1.3496h2.9434v10.15h-2.9434zm0 15.238h2.9434v10.15h-2.9434zm-46.926 18.412 21.871 4.209v8l-21.871-4.209zm26.076 0h20.189c-0.56029 3.3688 0.98157 4.7707 4.627 4.209h45.846v8h-63.512c-5.0468 0.28085-7.4298-2.3858-7.1504-8zm-26.076 14.316 21.871 3.7891v8l-21.871-3.7891zm28.18 2.1055h66.455v16h2.1035v8.4199h-2.1035v27.789h2.1035v8.4219h-2.5234c-0.5617 1.9645-3.0857 2.9473-7.5723 2.9473h-12.197v-2.9473h-46.266v-36.211h-2.1035v-8.4199h2.1035zm20.189 8v8h6.7285l-1.2598-5.8965h13.457l1.2637 5.8965h5.8867v-8zm-44.582 5.8945h18.084l-4.2051 49.684h-17.666zm-29.068 8.1836h10.152v2.9434h-10.152zm15.24 0h10.15v2.9434h-10.15zm108.52 0h8.2988v2.9434h-8.4062c0.0709-0.19264 0.10728-0.39628 0.10742-0.60156zm13.387 0.056641h10.15v2.9434h-10.15zm-63.5 2.2852v27.789h7.9922l-3.7871-20.209h13.461l4.2051 20.209h4.2051v-27.789zm-1.4434 37.955h2.9434v4.375h-2.9434zm0 9.4629h2.9434v10.15h-2.9434zm-0.05664 15.238h2.9434v10.152h-2.9434z"/>
	</g>
</svg>
